<svg width="27" height="29" viewBox="0 0 27 29" fill="none" xmlns="http://www.w3.org/2000/svg">
<mask id="path-1-outside-1_932_952" maskUnits="userSpaceOnUse" x="12.0708" y="14.5564" width="14" height="14" fill="black">
<rect fill="white" x="12.0708" y="14.5564" width="14" height="14"/>
<path d="M19.7862 28.0008H18.7992C18.5772 28.0008 18.3642 27.9126 18.2071 27.7558C18.0499 27.599 17.9614 27.3862 17.9609 27.1642V26.0804C17.6607 25.987 17.371 25.8627 17.0964 25.7095L16.4077 26.3938C16.086 26.7095 15.5409 26.7065 15.2239 26.3901L14.5262 25.6881C14.3701 25.5304 14.2829 25.3174 14.2837 25.0956C14.2845 24.8738 14.3733 24.6613 14.5305 24.5049L15.2587 23.7817C15.1516 23.5656 15.0617 23.3414 14.9899 23.1111H13.9078C13.6857 23.1101 13.4731 23.0212 13.3163 22.864C13.1595 22.7067 13.0712 22.4938 13.0708 22.2718V21.2845C13.071 21.0625 13.1592 20.8496 13.3161 20.6926C13.473 20.5355 13.6858 20.4471 13.9078 20.4468H14.9915C15.0848 20.1471 15.2092 19.8579 15.3625 19.584L14.5556 18.7691C14.4778 18.6911 14.4163 18.5984 14.3746 18.4963C14.333 18.3943 14.312 18.285 14.3129 18.1749C14.3133 18.065 14.3354 17.9562 14.3781 17.855C14.4208 17.7537 14.4832 17.6619 14.5617 17.5849L15.2617 16.8882C15.5825 16.5735 16.1312 16.5769 16.4459 16.8922L17.2909 17.745C17.5052 17.6378 17.7305 17.5474 17.9635 17.4761V16.3934C17.9635 15.9317 18.3392 15.5564 18.8005 15.5564H19.7889C20.0107 15.5568 20.2234 15.6451 20.3802 15.802C20.537 15.9589 20.6253 16.1715 20.6255 16.3934V17.4775C20.8673 17.5524 21.1023 17.6477 21.3279 17.7624L22.181 16.9174C22.5027 16.6013 23.0491 16.606 23.3648 16.9214L24.0612 17.6231C24.2176 17.7795 24.3039 17.99 24.3039 18.2157C24.3039 18.3257 24.2821 18.4347 24.2396 18.5362C24.1971 18.6377 24.1349 18.7297 24.0565 18.807L23.2446 19.6138C23.3903 19.8796 23.5088 20.1595 23.5979 20.4488H24.6826C24.9044 20.4492 25.1171 20.5375 25.2739 20.6944C25.4308 20.8513 25.519 21.064 25.5193 21.2858V22.2714C25.5192 22.4934 25.431 22.7063 25.2742 22.8634C25.1173 23.0205 24.9046 23.109 24.6826 23.1094H23.5979C23.5233 23.3517 23.4277 23.5869 23.3123 23.8125L24.0351 24.5404C24.1911 24.6947 24.2775 24.9056 24.2775 25.133C24.2775 25.3559 24.1894 25.5655 24.0301 25.7235L23.33 26.4206C23.0083 26.7363 22.4585 26.7303 22.1465 26.4159L21.4632 25.7272C21.1964 25.8739 20.9175 25.9927 20.6305 26.0814V27.1659C20.6268 27.3878 20.5363 27.5994 20.3785 27.7554C20.2207 27.9115 20.0081 27.9996 19.7862 28.0008ZM17.0459 25.3111L17.152 25.3737C17.4686 25.5619 17.8085 25.7078 18.1631 25.8076L18.2793 25.8401V27.1635C18.2793 27.4494 18.5126 27.6821 18.7992 27.6821H19.7862C19.9241 27.6814 20.0563 27.6267 20.1546 27.5299C20.2528 27.4331 20.3094 27.3018 20.3121 27.1638V25.8421L20.4283 25.8096C20.7721 25.7133 21.102 25.5727 21.4096 25.3914L21.5157 25.3288L22.3718 26.1913C22.565 26.3861 22.9062 26.3895 23.106 26.1936L23.8054 25.4969C23.9042 25.3991 23.9588 25.2696 23.9588 25.1323C23.9588 24.9907 23.9059 24.8604 23.8098 24.7654L22.9202 23.8691L22.9768 23.7653C23.1275 23.4881 23.2443 23.1992 23.3247 22.9072L23.3571 22.7904H24.6826C24.9685 22.7904 25.2012 22.5574 25.2012 22.2708V21.2851C25.2012 20.9992 24.9685 20.7662 24.6826 20.7662H23.3575L23.325 20.6497C23.2292 20.3052 23.0894 19.9746 22.9088 19.666L22.8466 19.5596L23.8319 18.5803C23.931 18.4819 23.9856 18.352 23.9856 18.2147C23.9856 18.0741 23.9323 17.9435 23.8356 17.8471L23.1392 17.1453C23.0407 17.05 22.9091 16.9965 22.772 16.9961C22.6349 16.9958 22.503 17.0485 22.404 17.1433L21.3852 18.1528L21.2814 18.0968C21.0093 17.9492 20.7214 17.8325 20.4233 17.749L20.3068 17.7165V16.3934C20.3068 16.1075 20.0741 15.8745 19.7882 15.8745H18.7999C18.5139 15.8745 18.2813 16.1071 18.2813 16.3934V17.7162L18.1648 17.7487C17.8735 17.8293 17.5946 17.9412 17.3351 18.0804L17.2303 18.1367L16.2196 17.1169C16.0251 16.9227 15.6832 16.9197 15.4847 17.1149L14.7853 17.8109C14.7366 17.8586 14.6979 17.9154 14.6714 17.9782C14.6449 18.041 14.6311 18.1084 14.631 18.1765C14.6304 18.2449 14.6434 18.3127 14.6693 18.376C14.6951 18.4392 14.7333 18.4968 14.7816 18.5451L15.7602 19.5338L15.6976 19.6393C15.5095 19.9554 15.3636 20.2949 15.2637 20.649L15.2313 20.7652H13.9078C13.6219 20.7652 13.3892 20.9982 13.3892 21.2845V22.2718C13.3892 22.558 13.6219 22.7917 13.9085 22.7927H15.2306L15.2631 22.9092C15.3407 23.1891 15.4522 23.4677 15.5952 23.7379L15.6504 23.842L14.7552 24.7302C14.6578 24.8271 14.6027 24.9586 14.6022 25.096C14.6016 25.2334 14.6555 25.3654 14.7522 25.4631L15.4495 26.1648C15.6464 26.3607 15.9849 26.3627 16.1844 26.1668L17.0459 25.3111Z"/>
</mask>
<path d="M19.7862 28.0008H18.7992C18.5772 28.0008 18.3642 27.9126 18.2071 27.7558C18.0499 27.599 17.9614 27.3862 17.9609 27.1642V26.0804C17.6607 25.987 17.371 25.8627 17.0964 25.7095L16.4077 26.3938C16.086 26.7095 15.5409 26.7065 15.2239 26.3901L14.5262 25.6881C14.3701 25.5304 14.2829 25.3174 14.2837 25.0956C14.2845 24.8738 14.3733 24.6613 14.5305 24.5049L15.2587 23.7817C15.1516 23.5656 15.0617 23.3414 14.9899 23.1111H13.9078C13.6857 23.1101 13.4731 23.0212 13.3163 22.864C13.1595 22.7067 13.0712 22.4938 13.0708 22.2718V21.2845C13.071 21.0625 13.1592 20.8496 13.3161 20.6926C13.473 20.5355 13.6858 20.4471 13.9078 20.4468H14.9915C15.0848 20.1471 15.2092 19.8579 15.3625 19.584L14.5556 18.7691C14.4778 18.6911 14.4163 18.5984 14.3746 18.4963C14.333 18.3943 14.312 18.285 14.3129 18.1749C14.3133 18.065 14.3354 17.9562 14.3781 17.855C14.4208 17.7537 14.4832 17.6619 14.5617 17.5849L15.2617 16.8882C15.5825 16.5735 16.1312 16.5769 16.4459 16.8922L17.2909 17.745C17.5052 17.6378 17.7305 17.5474 17.9635 17.4761V16.3934C17.9635 15.9317 18.3392 15.5564 18.8005 15.5564H19.7889C20.0107 15.5568 20.2234 15.6451 20.3802 15.802C20.537 15.9589 20.6253 16.1715 20.6255 16.3934V17.4775C20.8673 17.5524 21.1023 17.6477 21.3279 17.7624L22.181 16.9174C22.5027 16.6013 23.0491 16.606 23.3648 16.9214L24.0612 17.6231C24.2176 17.7795 24.3039 17.99 24.3039 18.2157C24.3039 18.3257 24.2821 18.4347 24.2396 18.5362C24.1971 18.6377 24.1349 18.7297 24.0565 18.807L23.2446 19.6138C23.3903 19.8796 23.5088 20.1595 23.5979 20.4488H24.6826C24.9044 20.4492 25.1171 20.5375 25.2739 20.6944C25.4308 20.8513 25.519 21.064 25.5193 21.2858V22.2714C25.5192 22.4934 25.431 22.7063 25.2742 22.8634C25.1173 23.0205 24.9046 23.109 24.6826 23.1094H23.5979C23.5233 23.3517 23.4277 23.5869 23.3123 23.8125L24.0351 24.5404C24.1911 24.6947 24.2775 24.9056 24.2775 25.133C24.2775 25.3559 24.1894 25.5655 24.0301 25.7235L23.33 26.4206C23.0083 26.7363 22.4585 26.7303 22.1465 26.4159L21.4632 25.7272C21.1964 25.8739 20.9175 25.9927 20.6305 26.0814V27.1659C20.6268 27.3878 20.5363 27.5994 20.3785 27.7554C20.2207 27.9115 20.0081 27.9996 19.7862 28.0008ZM17.0459 25.3111L17.152 25.3737C17.4686 25.5619 17.8085 25.7078 18.1631 25.8076L18.2793 25.8401V27.1635C18.2793 27.4494 18.5126 27.6821 18.7992 27.6821H19.7862C19.9241 27.6814 20.0563 27.6267 20.1546 27.5299C20.2528 27.4331 20.3094 27.3018 20.3121 27.1638V25.8421L20.4283 25.8096C20.7721 25.7133 21.102 25.5727 21.4096 25.3914L21.5157 25.3288L22.3718 26.1913C22.565 26.3861 22.9062 26.3895 23.106 26.1936L23.8054 25.4969C23.9042 25.3991 23.9588 25.2696 23.9588 25.1323C23.9588 24.9907 23.9059 24.8604 23.8098 24.7654L22.9202 23.8691L22.9768 23.7653C23.1275 23.4881 23.2443 23.1992 23.3247 22.9072L23.3571 22.7904H24.6826C24.9685 22.7904 25.2012 22.5574 25.2012 22.2708V21.2851C25.2012 20.9992 24.9685 20.7662 24.6826 20.7662H23.3575L23.325 20.6497C23.2292 20.3052 23.0894 19.9746 22.9088 19.666L22.8466 19.5596L23.8319 18.5803C23.931 18.4819 23.9856 18.352 23.9856 18.2147C23.9856 18.0741 23.9323 17.9435 23.8356 17.8471L23.1392 17.1453C23.0407 17.05 22.9091 16.9965 22.772 16.9961C22.6349 16.9958 22.503 17.0485 22.404 17.1433L21.3852 18.1528L21.2814 18.0968C21.0093 17.9492 20.7214 17.8325 20.4233 17.749L20.3068 17.7165V16.3934C20.3068 16.1075 20.0741 15.8745 19.7882 15.8745H18.7999C18.5139 15.8745 18.2813 16.1071 18.2813 16.3934V17.7162L18.1648 17.7487C17.8735 17.8293 17.5946 17.9412 17.3351 18.0804L17.2303 18.1367L16.2196 17.1169C16.0251 16.9227 15.6832 16.9197 15.4847 17.1149L14.7853 17.8109C14.7366 17.8586 14.6979 17.9154 14.6714 17.9782C14.6449 18.041 14.6311 18.1084 14.631 18.1765C14.6304 18.2449 14.6434 18.3127 14.6693 18.376C14.6951 18.4392 14.7333 18.4968 14.7816 18.5451L15.7602 19.5338L15.6976 19.6393C15.5095 19.9554 15.3636 20.2949 15.2637 20.649L15.2313 20.7652H13.9078C13.6219 20.7652 13.3892 20.9982 13.3892 21.2845V22.2718C13.3892 22.558 13.6219 22.7917 13.9085 22.7927H15.2306L15.2631 22.9092C15.3407 23.1891 15.4522 23.4677 15.5952 23.7379L15.6504 23.842L14.7552 24.7302C14.6578 24.8271 14.6027 24.9586 14.6022 25.096C14.6016 25.2334 14.6555 25.3654 14.7522 25.4631L15.4495 26.1648C15.6464 26.3607 15.9849 26.3627 16.1844 26.1668L17.0459 25.3111Z" fill="#4F7D7D"/>
<path d="M19.7862 28.0008H18.7992C18.5772 28.0008 18.3642 27.9126 18.2071 27.7558C18.0499 27.599 17.9614 27.3862 17.9609 27.1642V26.0804C17.6607 25.987 17.371 25.8627 17.0964 25.7095L16.4077 26.3938C16.086 26.7095 15.5409 26.7065 15.2239 26.3901L14.5262 25.6881C14.3701 25.5304 14.2829 25.3174 14.2837 25.0956C14.2845 24.8738 14.3733 24.6613 14.5305 24.5049L15.2587 23.7817C15.1516 23.5656 15.0617 23.3414 14.9899 23.1111H13.9078C13.6857 23.1101 13.4731 23.0212 13.3163 22.864C13.1595 22.7067 13.0712 22.4938 13.0708 22.2718V21.2845C13.071 21.0625 13.1592 20.8496 13.3161 20.6926C13.473 20.5355 13.6858 20.4471 13.9078 20.4468H14.9915C15.0848 20.1471 15.2092 19.8579 15.3625 19.584L14.5556 18.7691C14.4778 18.6911 14.4163 18.5984 14.3746 18.4963C14.333 18.3943 14.312 18.285 14.3129 18.1749C14.3133 18.065 14.3354 17.9562 14.3781 17.855C14.4208 17.7537 14.4832 17.6619 14.5617 17.5849L15.2617 16.8882C15.5825 16.5735 16.1312 16.5769 16.4459 16.8922L17.2909 17.745C17.5052 17.6378 17.7305 17.5474 17.9635 17.4761V16.3934C17.9635 15.9317 18.3392 15.5564 18.8005 15.5564H19.7889C20.0107 15.5568 20.2234 15.6451 20.3802 15.802C20.537 15.9589 20.6253 16.1715 20.6255 16.3934V17.4775C20.8673 17.5524 21.1023 17.6477 21.3279 17.7624L22.181 16.9174C22.5027 16.6013 23.0491 16.606 23.3648 16.9214L24.0612 17.6231C24.2176 17.7795 24.3039 17.99 24.3039 18.2157C24.3039 18.3257 24.2821 18.4347 24.2396 18.5362C24.1971 18.6377 24.1349 18.7297 24.0565 18.807L23.2446 19.6138C23.3903 19.8796 23.5088 20.1595 23.5979 20.4488H24.6826C24.9044 20.4492 25.1171 20.5375 25.2739 20.6944C25.4308 20.8513 25.519 21.064 25.5193 21.2858V22.2714C25.5192 22.4934 25.431 22.7063 25.2742 22.8634C25.1173 23.0205 24.9046 23.109 24.6826 23.1094H23.5979C23.5233 23.3517 23.4277 23.5869 23.3123 23.8125L24.0351 24.5404C24.1911 24.6947 24.2775 24.9056 24.2775 25.133C24.2775 25.3559 24.1894 25.5655 24.0301 25.7235L23.33 26.4206C23.0083 26.7363 22.4585 26.7303 22.1465 26.4159L21.4632 25.7272C21.1964 25.8739 20.9175 25.9927 20.6305 26.0814V27.1659C20.6268 27.3878 20.5363 27.5994 20.3785 27.7554C20.2207 27.9115 20.0081 27.9996 19.7862 28.0008ZM17.0459 25.3111L17.152 25.3737C17.4686 25.5619 17.8085 25.7078 18.1631 25.8076L18.2793 25.8401V27.1635C18.2793 27.4494 18.5126 27.6821 18.7992 27.6821H19.7862C19.9241 27.6814 20.0563 27.6267 20.1546 27.5299C20.2528 27.4331 20.3094 27.3018 20.3121 27.1638V25.8421L20.4283 25.8096C20.7721 25.7133 21.102 25.5727 21.4096 25.3914L21.5157 25.3288L22.3718 26.1913C22.565 26.3861 22.9062 26.3895 23.106 26.1936L23.8054 25.4969C23.9042 25.3991 23.9588 25.2696 23.9588 25.1323C23.9588 24.9907 23.9059 24.8604 23.8098 24.7654L22.9202 23.8691L22.9768 23.7653C23.1275 23.4881 23.2443 23.1992 23.3247 22.9072L23.3571 22.7904H24.6826C24.9685 22.7904 25.2012 22.5574 25.2012 22.2708V21.2851C25.2012 20.9992 24.9685 20.7662 24.6826 20.7662H23.3575L23.325 20.6497C23.2292 20.3052 23.0894 19.9746 22.9088 19.666L22.8466 19.5596L23.8319 18.5803C23.931 18.4819 23.9856 18.352 23.9856 18.2147C23.9856 18.0741 23.9323 17.9435 23.8356 17.8471L23.1392 17.1453C23.0407 17.05 22.9091 16.9965 22.772 16.9961C22.6349 16.9958 22.503 17.0485 22.404 17.1433L21.3852 18.1528L21.2814 18.0968C21.0093 17.9492 20.7214 17.8325 20.4233 17.749L20.3068 17.7165V16.3934C20.3068 16.1075 20.0741 15.8745 19.7882 15.8745H18.7999C18.5139 15.8745 18.2813 16.1071 18.2813 16.3934V17.7162L18.1648 17.7487C17.8735 17.8293 17.5946 17.9412 17.3351 18.0804L17.2303 18.1367L16.2196 17.1169C16.0251 16.9227 15.6832 16.9197 15.4847 17.1149L14.7853 17.8109C14.7366 17.8586 14.6979 17.9154 14.6714 17.9782C14.6449 18.041 14.6311 18.1084 14.631 18.1765C14.6304 18.2449 14.6434 18.3127 14.6693 18.376C14.6951 18.4392 14.7333 18.4968 14.7816 18.5451L15.7602 19.5338L15.6976 19.6393C15.5095 19.9554 15.3636 20.2949 15.2637 20.649L15.2313 20.7652H13.9078C13.6219 20.7652 13.3892 20.9982 13.3892 21.2845V22.2718C13.3892 22.558 13.6219 22.7917 13.9085 22.7927H15.2306L15.2631 22.9092C15.3407 23.1891 15.4522 23.4677 15.5952 23.7379L15.6504 23.842L14.7552 24.7302C14.6578 24.8271 14.6027 24.9586 14.6022 25.096C14.6016 25.2334 14.6555 25.3654 14.7522 25.4631L15.4495 26.1648C15.6464 26.3607 15.9849 26.3627 16.1844 26.1668L17.0459 25.3111Z" stroke="#4F7D7D" mask="url(#path-1-outside-1_932_952)"/>
<path d="M21.9902 21.7773V21.7773C21.9902 20.291 20.7811 19.0819 19.2948 19.0819C17.8088 19.0819 16.6001 20.2907 16.6001 21.7773C16.6001 23.2632 17.8085 24.472 19.2948 24.472C20.7811 24.472 21.9898 23.2636 21.9902 21.7773ZM17.9685 20.4508C18.3203 20.099 18.7972 19.901 19.2948 19.9003C19.7923 19.9011 20.2693 20.0991 20.6211 20.4509C20.9729 20.8027 21.1709 21.2796 21.1718 21.7772C21.1711 22.2747 20.9731 22.7518 20.6212 23.1036C20.2694 23.4554 19.7924 23.6533 19.2948 23.6539C18.7973 23.6532 18.3204 23.4553 17.9686 23.1035C17.6168 22.7517 17.4189 22.2748 17.4182 21.7773C17.4188 21.2797 17.6167 20.8027 17.9685 20.4508Z" fill="#4F7D7D" stroke="#4F7D7D" stroke-width="0.5"/>
<path d="M12.5525 15.5555C5.81174 15.5555 1 18.6667 1 26.9629" stroke="#292929" stroke-width="1.5" stroke-linecap="round"/>
<path d="M18.8041 6.56894C18.8041 9.7697 16.1574 12.3879 12.8632 12.3879C9.56912 12.3879 6.92236 9.7697 6.92236 6.56894C6.92236 3.36817 9.56912 0.75 12.8632 0.75C16.1574 0.75 18.8041 3.36817 18.8041 6.56894Z" stroke="#292929" stroke-width="1.5"/>
</svg>
