<svg width="128" height="96" viewBox="0 0 128 96" fill="none" xmlns="http://www.w3.org/2000/svg">
<path d="M64.9605 31.8085C62.6913 31.6963 60.5155 32.3195 58.3406 32.8703C48.9501 35.2501 41.0392 40.2344 33.8696 46.5945C29.0804 50.8429 24.7445 55.5052 20.5644 60.329C20.1834 60.7693 19.8142 61.2289 19.2397 61.43C18.5942 61.6561 18.1386 61.6042 18.442 60.7468C18.5167 60.5356 18.8107 60.3378 18.4086 60.2147C17.0218 59.79 17.3977 58.7825 17.6436 57.8661C18.1051 56.146 19.2594 54.7905 20.2471 53.3796C23.0141 49.426 25.9334 45.5728 29.3341 42.1354C32.4913 38.9442 36.077 36.2454 39.7364 33.6477C42.0654 31.9946 44.4579 30.3448 47.1997 29.5976C49.0209 29.1014 50.4921 27.9916 52.2698 27.4868C55.6766 26.5193 59.0802 25.5919 62.6408 25.3949C65.5718 25.2328 68.3399 25.8121 70.8887 27.2669C71.2574 27.4957 71.677 27.6302 72.1103 27.6585C72.5436 27.6869 72.9772 27.6082 73.3728 27.4295C75.6716 26.4859 78.0083 25.6134 80.3379 24.7785C84.1273 23.4204 88.1154 22.6683 92.1069 22.0741C98.4727 21.1263 104.848 20.8272 111.215 22.0867C114.958 22.8269 118.599 23.7989 121.409 26.6285C122.149 27.3735 122.698 28.196 122.663 29.3029C122.649 29.7798 122.497 30.141 122.028 30.3403C121.475 30.5761 121.426 30.1848 121.171 29.8267C119.422 27.3725 116.633 27.0502 113.984 26.5061C106.682 25.0064 99.417 25.6931 92.1701 26.9572C86.6334 27.9042 81.2152 29.4436 76.0093 31.5489C75.5954 31.7175 75.0239 31.7029 75.3691 32.483C76.5708 35.2004 76.377 37.9793 75.3989 40.6847C73.8895 44.859 71.4302 48.2434 66.912 49.5363C64.4831 50.2311 62.8639 49.444 61.44 47.3811C57.8107 42.1244 59.8027 36.4653 63.9413 33.0771C64.3117 32.7741 64.6821 32.4713 65.0525 32.1688C65.0226 32.0485 64.9919 31.9285 64.9605 31.8085ZM63.1572 43.1864C63.139 44.5758 64.0373 44.4013 64.8624 44.2828C67.6519 43.8826 69.0859 41.7384 70.4372 39.6753C71.4214 38.1712 72.2558 36.4846 72.2787 34.5854C72.2876 33.8613 72.0942 33.2855 71.1546 33.8028C68.5895 35.2145 66.283 36.9311 64.6188 39.3812C63.8267 40.5481 63.2764 41.8279 63.1571 43.1864L63.1572 43.1864ZM54.4182 32.3447C57.9413 31.5229 61.4032 30.5892 64.9751 30.1657C61.2319 29.8585 57.7842 30.9966 54.4182 32.3447ZM75.0036 30.8155L83.8755 27.6449C80.7587 28.1897 77.7581 29.262 75.0036 30.8155V30.8155Z" fill="#275C61"/>
<path d="M12.337 56.1667C12.2704 59.1765 11.6903 62.1221 11.2258 65.0826C11.1564 65.525 10.8408 66.0075 11.398 66.394C11.9337 66.7654 12.3464 66.386 12.7095 66.1481C14.6862 64.8527 16.9338 64.2083 19.0869 63.3191C20.4479 62.757 21.712 61.9336 23.1273 61.3987C25.3069 60.5754 27.4269 59.5882 29.5468 58.6157C30.6206 58.1229 31.8788 58.1537 32.8134 57.2151C33.7302 56.2942 34.7233 56.5714 35.852 58.1057C36.4278 58.8882 36.6637 59.9319 35.6836 60.675C34.8774 61.2946 34.0125 61.8342 33.1011 62.286C27.0873 65.2066 21.0499 68.0789 15.0326 70.9923C13.6815 71.6465 12.3742 72.3919 11.0553 73.1109C8.65817 74.4177 7.64217 74.0673 6.36138 71.6462C5.36713 69.7676 5.28728 67.913 5.95625 65.9109C7.24355 62.0582 8.42068 58.1684 8.95979 54.1242C9.06774 53.3139 9.06156 52.489 9.13728 51.6736C9.22507 50.7293 9.66941 50.4876 10.4827 51.0432C12.2854 52.2749 12.4366 52.6891 12.337 56.1667ZM18.2121 68.0767C15.3704 68.9693 12.7122 70.2229 10.3246 72.0069L18.2121 68.0767Z" fill="#275C61"/>
</svg>
