<svg width="206" height="244" viewBox="0 0 206 244" fill="none" xmlns="http://www.w3.org/2000/svg">
<g clip-path="url(#clip0_1056_955)">
<rect x="26" y="63.9999" width="180" height="180" rx="90" fill="#DAE7E9"/>
<path d="M86.3555 192.506C86.3555 192.506 62.6919 274.267 52.5198 372.827L45.124 377.748L77.4077 393.14L118.662 279.862L125.322 188.38" fill="white"/>
<path d="M96.1079 191.539L142.212 188.38L150.596 191.795L154.536 393.14H111.713L116.241 385.026L96.1079 191.539Z" fill="white"/>
<path d="M105.811 94.7094V101.987C105.811 107.614 109.652 112.514 115.117 113.857L126.697 116.703V88.2504L117.068 85.8837C114.357 85.2173 111.489 85.8343 109.292 87.557C107.094 89.2798 105.811 91.9171 105.811 94.7094V94.7094Z" fill="white"/>
<path d="M105.811 101.987C105.811 107.614 109.652 112.514 115.117 113.857L126.697 116.703" stroke="black" stroke-linecap="round" stroke-linejoin="round"/>
<path d="M117.609 100.543C117.918 100.543 118.168 100.293 118.168 99.9842C118.168 99.6758 117.918 99.4258 117.609 99.4258C117.301 99.4258 117.051 99.6758 117.051 99.9842C117.051 100.293 117.301 100.543 117.609 100.543Z" fill="black"/>
<path d="M109.032 100.543C109.34 100.543 109.59 100.293 109.59 99.9842C109.59 99.6758 109.34 99.4258 109.032 99.4258C108.723 99.4258 108.473 99.6758 108.473 99.9842C108.473 100.293 108.723 100.543 109.032 100.543Z" fill="black"/>
<path d="M111.548 103.316V94.7094H108.248" stroke="black" stroke-linecap="round" stroke-linejoin="round"/>
<path d="M118.662 94.7093H114.35" stroke="black" stroke-linecap="round" stroke-linejoin="round"/>
<path d="M125.322 99.119V102.108C126.934 102.108 128.241 100.801 128.241 99.1887C128.241 99.0991 128.237 99.0105 128.229 98.9229C128.065 97.1103 125.322 97.299 125.322 99.119Z" fill="white"/>
<path d="M125.322 102.108C126.934 102.108 128.241 100.801 128.241 99.1887" stroke="black" stroke-linecap="round" stroke-linejoin="round"/>
<path d="M113.906 104.321C114.268 104.684 114.76 104.887 115.273 104.887C115.785 104.887 116.277 104.684 116.639 104.321" stroke="#275C61" stroke-linecap="round" stroke-linejoin="round"/>
<path d="M111.548 103.323L113.434 103.786" stroke="black" stroke-linecap="round" stroke-linejoin="round"/>
<path d="M86.3555 146.896V192.506L150.968 208.386V157.589C150.968 139.578 138.671 123.893 121.18 119.594H121.18C112.792 117.532 103.922 119.441 97.1239 124.77C90.3261 130.1 86.3555 138.258 86.3555 146.896V146.896Z" fill="#275C61"/>
<path d="M116.241 385.026L96.1079 191.539" stroke="black" stroke-linecap="round" stroke-linejoin="round"/>
<path d="M105.368 99.9843L98.9697 96.476C98.9697 96.476 108.321 69.7007 127.517 81.5133C146.712 93.326 126.697 106.812 126.697 106.812" stroke="black" stroke-linecap="round" stroke-linejoin="round"/>
<path d="M104.909 95.3604C104.909 95.3604 117.61 93.3131 122.033 87.104C122.033 87.104 120.234 96.0943 125.566 98.2867" stroke="black" stroke-linecap="round" stroke-linejoin="round"/>
<path d="M135.841 126.685C135.841 126.685 157.738 142.084 167.188 163.577C167.188 163.577 163.841 124.039 168.566 117.542C171.06 114.112 173.882 118.768 173.882 118.768C173.882 118.768 186.285 113.604 186.679 115.573C187.072 117.542 179.788 125.023 179.788 125.023C179.788 125.023 190.419 173.966 182.15 187.944C173.882 201.923 131.947 174.046 131.947 174.046" stroke="black" stroke-linecap="round" stroke-linejoin="round"/>
<path d="M136.465 176.888C136.465 176.888 136.553 196.083 150.968 204.248V184.838L136.465 176.888Z" fill="black"/>
<path d="M97.3899 124.568C97.3899 124.568 77.9369 138.984 74.2619 153.496C74.2619 153.496 68.2243 114.218 64.8118 115.125C61.3993 116.032 60.6117 118.768 60.6117 118.768C60.6117 118.768 49.8491 113.138 48.2741 115.11C46.6991 117.082 57.7242 127.845 57.7242 127.845C57.7242 127.845 51.0546 174.783 58.7742 181.133C75.0494 194.521 86.3555 175.358 86.3555 175.358" stroke="black" stroke-linecap="round" stroke-linejoin="round"/>
</g>
<path d="M70.9837 39.7086C72.689 39.6095 74.3941 39.443 76.0996 39.441C76.8783 39.4402 77.9521 39.3933 78.0176 40.5996C78.0938 42.0124 77.1685 42.9015 75.9269 42.9808C71.1907 43.2832 66.5977 44.3506 62.0198 45.5622C56.9495 46.9042 52.0229 48.7342 47.5187 51.3036C43.8613 53.3899 40.4203 55.9851 37.264 58.8891C30.7502 64.8825 25.2874 71.7602 20.1521 78.9288C19.7473 79.4939 19.4413 80.1726 18.7259 80.4369C18.4162 80.5514 18.0898 80.807 17.7542 80.4715C17.4401 80.1573 17.551 79.7995 17.7139 79.4913C18.0974 78.7263 18.5221 77.9827 18.9861 77.2639C24.6435 68.9062 30.7517 60.9256 38.4457 54.3082C47.8465 46.2236 58.6627 41.2976 70.9837 39.7086Z" fill="#DAE7E9"/>
<path d="M68.4088 52.9159C69.5458 52.9673 70.6798 52.6765 71.821 53.0055C72.2346 53.1247 72.6003 53.2116 72.7134 53.6763C73.1276 55.3781 71.7532 57.1606 70.0006 57.4689C57.3895 59.6859 46.6006 64.9553 39.3565 76.0674C38.7499 76.9947 38.205 77.9611 37.7253 78.9604C37.3125 79.8247 36.7163 80.8407 35.8224 80.473C34.6918 80.0079 35.4308 78.8593 35.7438 78.0928C37.2261 74.4613 39.4932 71.3176 41.9906 68.3336C48.0201 61.1288 55.6779 56.4451 64.5958 53.746C65.835 53.3709 67.1326 53.1885 68.4088 52.9159Z" fill="#DAE7E9"/>
<defs>
<clipPath id="clip0_1056_955">
<rect x="26" y="63.9999" width="180" height="180" rx="90" fill="white"/>
</clipPath>
</defs>
</svg>
