<svg width="29" height="31" viewBox="0 0 29 31" fill="none" xmlns="http://www.w3.org/2000/svg">
<path d="M21.1409 13.8983V8.28177C21.1409 8.12101 21.0666 7.97247 20.9616 7.85495L14.6646 1.24257C14.5471 1.11894 14.38 1.05078 14.2131 1.05078H4.22943C2.3863 1.05078 0.914062 2.55381 0.914062 4.39717V23.2756C0.914062 25.119 2.3863 26.5973 4.22943 26.5973H12.11C13.6006 29.0715 16.3101 30.7292 19.3965 30.7292C24.0851 30.7292 27.9141 26.9189 27.9141 22.2241C27.9204 18.123 24.9759 14.6963 21.1409 13.8983ZM14.8317 3.222L19.0564 7.66928H16.3162C15.4997 7.66928 14.8317 6.9952 14.8317 6.1787V3.222ZM4.22943 25.3601C3.07283 25.3601 2.15127 24.4322 2.15127 23.2756V4.39717C2.15127 3.23423 3.07283 2.28799 4.22943 2.28799H13.5945V6.1787C13.5945 7.68173 14.8131 8.90649 16.3162 8.90649H19.9037V13.7373C19.7183 13.7312 19.5697 13.7127 19.409 13.7127C17.2502 13.7127 15.2646 14.5416 13.7677 15.8406H5.91201C5.57169 15.8406 5.29341 16.1189 5.29341 16.459C5.29341 16.7993 5.57169 17.0776 5.91201 17.0776H12.6172C12.178 17.6962 11.813 18.3148 11.5286 18.9952H5.91201C5.57169 18.9952 5.29341 19.2735 5.29341 19.6138C5.29341 19.9539 5.57169 20.2324 5.91201 20.2324H11.1264C10.9718 20.851 10.8914 21.5376 10.8914 22.2241C10.8914 23.3374 11.1079 24.4386 11.4975 25.3665H4.22943V25.3601ZM19.4028 29.4983C15.3946 29.4983 12.1347 26.2384 12.1347 22.2302C12.1347 18.222 15.3883 14.9621 19.4028 14.9621C23.4172 14.9621 26.6707 18.222 26.6707 22.2302C26.6707 26.2384 23.4111 29.4983 19.4028 29.4983Z" fill="#73314F" stroke="#73314F" stroke-width="0.5"/>
<path d="M5.91059 13.9794H12.1765C12.5169 13.9794 12.7951 13.7009 12.7951 13.3608C12.7951 13.0205 12.5169 12.7422 12.1765 12.7422H5.91059C5.57027 12.7422 5.29199 13.0205 5.29199 13.3608C5.29199 13.7009 5.57027 13.9794 5.91059 13.9794Z" fill="#73314F" stroke="#73314F" stroke-width="0.5"/>
<path d="M22.5688 22.0997L20.0266 24.84V18.0854C20.0266 17.7451 19.7481 17.4668 19.408 17.4668C19.0677 17.4668 18.7894 17.7451 18.7894 18.0854V24.84L16.2285 22.0997C15.9935 21.8525 15.5977 21.8339 15.3502 22.069C15.1027 22.304 15.0842 22.6937 15.3194 22.9412L18.938 26.8319C19.0555 26.9555 19.2163 27.0298 19.3895 27.0298C19.5627 27.0298 19.7235 26.9555 19.841 26.8319L23.4659 22.9412C23.7009 22.6937 23.6884 22.2979 23.441 22.069C23.1874 21.8339 22.804 21.8525 22.5688 22.0997Z" fill="#73314F" stroke="#73314F" stroke-width="0.5"/>
</svg>
