<svg width="14" height="15" viewBox="0 0 14 15" fill="none" xmlns="http://www.w3.org/2000/svg">
<path d="M13.125 10.7422V12.4922C13.125 12.9748 12.7326 13.3672 12.25 13.3672H1.75C1.26744 13.3672 0.875 12.9748 0.875 12.4922V10.7422C0.875 10.5007 1.071 10.3047 1.3125 10.3047C1.554 10.3047 1.75 10.5007 1.75 10.7422V12.4922H12.25V10.7422C12.25 10.5007 12.446 10.3047 12.6875 10.3047C12.929 10.3047 13.125 10.5007 13.125 10.7422Z" fill="white"/>
<path d="M3.6283 7.5515C3.45723 7.38044 3.45723 7.10394 3.6283 6.93287C3.79936 6.76181 4.07586 6.76181 4.24692 6.93287L6.56261 9.24856V1.55469C6.56261 1.31319 6.75861 1.11719 7.00011 1.11719C7.24161 1.11719 7.43761 1.31319 7.43761 1.55469V9.24856L9.7533 6.93287C9.92436 6.76181 10.2009 6.76181 10.3719 6.93287C10.543 7.10394 10.543 7.38044 10.3719 7.5515L7.30942 10.614C7.13617 10.7877 6.85836 10.782 6.69036 10.614L3.6283 7.5515Z" fill="white"/>
</svg>
