<svg width="25" height="25" viewBox="0 0 25 25" fill="none" xmlns="http://www.w3.org/2000/svg">
<path fill-rule="evenodd" clip-rule="evenodd" d="M4.98438 7.69583C5.84638 7.91833 6.48438 8.70183 6.48438 9.63283C6.48438 10.5638 5.84638 11.3473 4.98438 11.5698L4.98438 22.3828C4.98438 22.4528 4.96988 22.5218 4.94138 22.5858C4.91488 22.6453 4.87638 22.6998 4.82938 22.7448C4.78438 22.7878 4.73087 22.8223 4.67337 22.8458C4.62037 22.8673 4.56388 22.8798 4.50688 22.8823C4.45238 22.8848 4.39738 22.8783 4.34438 22.8628C4.29788 22.8493 4.25337 22.8288 4.21237 22.8023C4.12287 22.7443 4.05337 22.6573 4.01587 22.5573C3.99537 22.5028 3.98488 22.4443 3.98438 22.3858L3.98438 22.3828L3.98438 11.5698C3.12238 11.3473 2.48438 10.5638 2.48438 9.63283C2.48438 8.70183 3.12238 7.91833 3.98438 7.69583L3.98438 2.38283C3.98438 2.32433 3.99438 2.26583 4.01488 2.21083C4.05188 2.10983 4.12187 2.02183 4.21237 1.96333C4.25337 1.93683 4.29788 1.91633 4.34438 1.90283C4.39738 1.88733 4.45238 1.88083 4.50688 1.88333C4.56388 1.88583 4.62037 1.89833 4.67337 1.91983C4.73087 1.94333 4.78438 1.97783 4.82938 2.02083C4.87638 2.06583 4.91488 2.12033 4.94138 2.17983C4.96988 2.24383 4.98438 2.31283 4.98438 2.38283L4.98438 7.69583ZM5.48438 9.63283C5.48438 10.1848 5.03638 10.6328 4.48438 10.6328C3.93238 10.6328 3.48438 10.1848 3.48438 9.63283C3.48438 9.08083 3.93238 8.63283 4.48438 8.63283C5.03638 8.63283 5.48438 9.08083 5.48438 9.63283ZM12.9844 15.6958C13.8464 15.9183 14.4844 16.7018 14.4844 17.6328C14.4844 18.5638 13.8464 19.3473 12.9844 19.5698L12.9844 22.3828C12.9844 22.4528 12.9699 22.5218 12.9414 22.5858C12.9149 22.6453 12.8764 22.6998 12.8294 22.7448C12.7844 22.7878 12.7309 22.8223 12.6734 22.8458C12.6204 22.8673 12.5639 22.8798 12.5069 22.8823C12.4524 22.8848 12.3974 22.8783 12.3444 22.8628C12.2979 22.8493 12.2534 22.8288 12.2124 22.8023C12.1229 22.7443 12.0534 22.6573 12.0159 22.5573C11.9954 22.5028 11.9849 22.4443 11.9844 22.3858L11.9844 22.3828L11.9844 19.5698C11.1224 19.3473 10.4844 18.5638 10.4844 17.6328C10.4844 16.7018 11.1224 15.9183 11.9844 15.6958L11.9844 2.38283C11.9844 2.31283 11.9989 2.24383 12.0274 2.17983C12.0539 2.12033 12.0924 2.06583 12.1394 2.02083C12.1844 1.97783 12.2379 1.94333 12.2954 1.91983C12.3484 1.89833 12.4049 1.88583 12.4619 1.88333C12.5164 1.88083 12.5714 1.88733 12.6244 1.90283C12.6709 1.91633 12.7154 1.93683 12.7564 1.96333C12.8469 2.02183 12.9169 2.10983 12.9539 2.21083C12.9744 2.26583 12.9844 2.32433 12.9844 2.38283L12.9844 15.6958ZM13.4844 17.6328C13.4844 18.1848 13.0364 18.6328 12.4844 18.6328C11.9324 18.6328 11.4844 18.1848 11.4844 17.6328C11.4844 17.0808 11.9324 16.6328 12.4844 16.6328C13.0364 16.6328 13.4844 17.0808 13.4844 17.6328ZM20.9844 4.44583C21.8464 4.66833 22.4844 5.45183 22.4844 6.38283C22.4844 7.31383 21.8464 8.09733 20.9844 8.31983L20.9844 22.3828C20.9844 22.4528 20.9699 22.5218 20.9414 22.5858C20.9149 22.6453 20.8764 22.6998 20.8294 22.7448C20.7844 22.7878 20.7309 22.8223 20.6734 22.8458C20.6204 22.8673 20.5639 22.8798 20.5069 22.8823C20.4524 22.8848 20.3974 22.8783 20.3444 22.8628C20.2979 22.8493 20.2534 22.8288 20.2124 22.8023C20.1229 22.7443 20.0534 22.6573 20.0159 22.5573C19.9954 22.5028 19.9849 22.4443 19.9844 22.3858L19.9844 22.3828L19.9844 8.31983C19.1224 8.09733 18.4844 7.31383 18.4844 6.38283C18.4844 5.45183 19.1224 4.66833 19.9844 4.44583L19.9844 2.38283C19.9844 2.32433 19.9944 2.26583 20.0149 2.21083C20.0519 2.10983 20.1219 2.02184 20.2124 1.96334C20.2534 1.93684 20.2979 1.91633 20.3444 1.90283C20.3974 1.88733 20.4524 1.88083 20.5069 1.88333C20.5639 1.88583 20.6204 1.89833 20.6734 1.91983C20.7309 1.94333 20.7844 1.97783 20.8294 2.02083C20.8764 2.06583 20.9149 2.12033 20.9414 2.17983C20.9699 2.24383 20.9844 2.31283 20.9844 2.38283L20.9844 4.44583ZM21.4844 6.38283C21.4844 6.93483 21.0364 7.38283 20.4844 7.38283C19.9324 7.38283 19.4844 6.93483 19.4844 6.38283C19.4844 5.83083 19.9324 5.38283 20.4844 5.38283C21.0364 5.38283 21.4844 5.83083 21.4844 6.38283Z" fill="#275C61"/>
</svg>
