    <svg width="131" height="49" viewBox="0 0 131 49" fill="none" xmlns="http://www.w3.org/2000/svg">
    <g clip-path="url(#clip0_266_245)">
    <path d="M60.9932 18.0626C60.9932 17.223 62.0525 16.606 62.1246 16.7101C63.0163 18.0429 64.6789 19.153 66.8229 19.153C68.9912 19.153 70.2201 18.2406 70.2201 16.656C70.2201 14.855 68.392 14.4357 66.3171 13.9414C63.908 13.3744 61.4025 12.5098 61.4025 9.27711C61.4025 6.56259 63.6907 4.63672 67.0158 4.63672C70.4852 4.63672 72.3641 6.31496 72.3641 7.47506C72.3641 8.38857 71.256 8.95666 71.2073 8.88174C70.3887 7.67274 68.847 6.7353 67.0432 6.7353C65.0922 6.7353 63.8156 7.69771 63.8156 9.17827C63.8156 10.9304 65.3329 11.2019 67.5013 11.7201C70.1511 12.3371 72.7053 13.3983 72.7053 16.4833C72.7053 19.4204 70.4893 21.2475 66.8513 21.2475C63.0884 21.2464 60.9932 19.3705 60.9932 18.0626Z" fill="#73314F"/>
    <path d="M76.324 25.073L78.2537 20.2609C77.7235 20.2109 77.4351 20.0632 77.238 19.569L73.0943 9.64833C73.0466 9.49954 73.5757 8.9325 74.3476 8.9325C75.0219 8.9325 75.479 9.25296 75.8649 10.3142L78.9981 18.5057L81.7677 10.3621C82.1059 9.27585 82.6351 8.93042 83.2617 8.93042C83.9127 8.93042 84.5627 9.47353 84.515 9.59631L79.0459 24.3821C78.6609 25.4434 78.1318 25.7347 77.5763 25.7347C76.9009 25.7399 76.2752 25.1968 76.324 25.073Z" fill="#73314F"/>
    <path d="M91.3093 8.7572C92.5139 8.7572 93.2126 9.34922 93.2126 10.3366C93.2126 11.273 92.5382 11.6444 92.4895 11.5955C92.0758 11.2481 91.5546 11.0636 91.0199 11.0753C89.141 11.0753 88.3945 12.9481 88.3945 15.6897V19.8609C88.3945 20.7494 87.9364 21.021 87.3342 21.021H87.0691C86.4425 21.021 86.0088 20.7494 86.0088 19.8609V9.20147C86.0088 9.1276 86.3947 8.92992 86.8761 8.92992C87.5992 8.92992 88.3457 9.32425 88.3701 11.0025C88.8759 9.5469 89.8397 8.7572 91.3093 8.7572Z" fill="#73314F"/>
    <path d="M93.7378 14.976C93.7378 11.349 96.2433 8.7572 99.8315 8.7572C103.373 8.7572 105.879 11.3729 105.879 15.0259C105.879 18.6539 103.373 21.2457 99.8072 21.2457C96.219 21.2457 93.7378 18.6539 93.7378 14.976ZM103.663 15.0259C103.663 12.558 102.049 10.7601 99.8041 10.7601C97.588 10.7601 95.9254 12.5371 95.9254 14.9801C95.9254 17.4231 97.588 19.2459 99.8041 19.2459C102.02 19.2459 103.663 17.4439 103.663 15.0259Z" fill="#73314F"/>
    <path d="M113.942 8.7572C117.002 8.7572 118.423 10.9047 118.423 13.8408V19.8629C118.423 20.7515 117.965 21.023 117.363 21.023H117.098C116.471 21.023 116.038 20.7515 116.038 19.8629V14.1332C116.038 12.1345 115.051 10.9005 113.364 10.9005C111.846 10.9005 110.689 11.7391 110.114 12.9731V19.8588C110.114 20.7473 109.656 21.0189 109.053 21.0189H108.791C108.166 21.0189 107.732 20.7473 107.732 19.8588V9.20147C107.732 9.1276 108.117 8.92992 108.599 8.92992C109.298 8.92992 110.021 9.30032 110.092 10.8547C110.882 9.62077 112.183 8.7572 113.942 8.7572Z" fill="#73314F"/>
    <path d="M128.233 13.5453C128.233 11.7433 127.217 10.7559 125.365 10.7559C123.607 10.7559 122.571 11.6923 122.041 12.7796C122.041 12.8045 120.572 12.7796 120.572 11.5955C120.572 10.4604 122.258 8.7572 125.534 8.7572C128.81 8.7572 130.594 10.4843 130.594 13.4954V20.7785C130.594 20.9013 130.16 21.0501 129.727 21.0501C128.884 21.0501 128.28 20.5808 128.257 19.1253C127.39 20.4081 125.871 21.1978 124.093 21.1978C121.612 21.1978 120.142 19.84 120.142 17.8164C120.142 15.0769 122.695 13.8928 127.924 13.794H128.237L128.233 13.5453ZM128.233 16.2349V15.3224L127.583 15.3464C124.21 15.4702 122.475 16.1121 122.475 17.7155C122.475 18.7767 123.294 19.4436 124.667 19.4436C126.739 19.4395 128.233 18.1108 128.233 16.2349Z" fill="#73314F"/>
    <path d="M63.1094 42.1859V28.2096C63.1094 27.4376 63.4628 27.0391 64.125 27.0391H64.4795C65.1904 27.0391 65.5398 27.4376 65.5398 28.2096V34.0642H73.5795V28.2096C73.5795 27.4376 73.9329 27.0391 74.5951 27.0391H74.9485C75.6595 27.0391 76.0098 27.4376 76.0098 28.2096V42.1859C76.0098 42.9579 75.6564 43.3564 74.9485 43.3564H74.5951C73.9349 43.3564 73.5795 42.9579 73.5795 42.1859V36.3063H65.5377V42.1859C65.5377 42.9579 65.1843 43.3564 64.4774 43.3564H64.123C63.4628 43.3564 63.1094 42.9569 63.1094 42.1859Z" fill="#73314F"/>
    <path d="M84.1911 30.9727C87.4695 30.9727 89.6389 33.4146 89.6389 37.0072V37.206C89.6389 37.7262 89.4734 37.9291 88.928 37.9291H80.5572C80.5612 38.0796 80.5769 38.2295 80.6039 38.3775C80.934 40.345 82.4198 41.6404 84.4247 41.6404C86.4052 41.6404 87.3954 40.7185 87.9845 39.6479C88.0322 39.598 89.2113 39.8217 89.2113 40.8683C89.2113 41.3886 88.7868 42.0638 87.9611 42.6121C87.1354 43.1605 85.9298 43.5839 84.377 43.5839C80.7928 43.5839 78.3848 41.0671 78.3848 37.3308C78.3909 33.6882 80.8426 30.9727 84.1911 30.9727ZM84.1677 32.8455C82.3051 32.8455 80.867 34.2657 80.5836 36.2581H87.3751C87.2603 34.1866 86.0548 32.8413 84.1677 32.8413V32.8455Z" fill="#73314F"/>
    <path d="M98.764 36.0552H99.0687V35.8055C99.0687 33.9868 98.0785 32.9911 96.2626 32.9911C94.536 32.9911 93.5275 33.9369 93.0126 35.0335C93.0126 35.0585 91.5744 35.0335 91.5744 33.838C91.5744 33.3896 91.8334 32.8413 92.3524 32.3429C93.1304 31.5959 94.4984 30.9727 96.4322 30.9727C99.6385 30.9727 101.383 32.7164 101.383 35.7587V43.1084C101.383 43.2333 100.96 43.3821 100.535 43.3821C99.8985 43.3821 99.3795 43.0835 99.1906 42.2865C99.1304 42.0168 99.0987 41.7412 99.0961 41.4645C98.2237 42.7599 96.7389 43.5319 95.0174 43.5319C92.588 43.5319 91.1499 42.1616 91.1499 40.1192C91.1479 37.3506 93.6473 36.1541 98.764 36.0552ZM99.0687 37.5993L98.4319 37.6242C95.1311 37.7491 93.433 38.3962 93.433 40.0173C93.433 41.0879 94.2344 41.761 95.579 41.761C97.6103 41.761 99.0687 40.4158 99.0687 38.5221V37.5993Z" fill="#73314F"/>
    <path d="M104.235 42.1825V26.4104C104.235 26.3354 104.637 26.1367 105.084 26.1367C105.816 26.1367 106.57 26.5352 106.57 28.254V42.1825C106.57 43.0794 106.146 43.353 105.532 43.353H105.297C104.683 43.353 104.235 43.0794 104.235 42.1825Z" fill="#73314F"/>
    <path d="M110.416 39.6176V33.2896H109.592C108.861 33.2896 108.576 32.966 108.576 32.3678V32.193C108.576 31.5958 108.86 31.2711 109.592 31.2711H110.416V29.4285C110.416 28.5805 110.823 28.257 111.454 28.257H111.69C112.299 28.257 112.706 28.5067 112.706 29.4285V31.2711H115.276C116.007 31.2711 116.266 31.5708 116.266 32.168V32.3418C116.266 32.966 115.984 33.2886 115.251 33.2886H112.68V39.3419C112.68 40.837 113.087 41.5591 114.19 41.5591C114.504 41.5649 114.816 41.4906 115.096 41.3428C115.375 41.195 115.615 40.9783 115.793 40.7122C115.864 40.6383 116.453 40.9868 116.453 41.7588C116.45 41.9668 116.404 42.1716 116.319 42.3604C116.233 42.5492 116.111 42.7178 115.959 42.8555C115.51 43.2789 114.78 43.5775 113.813 43.5775C111.475 43.5786 110.416 42.2083 110.416 39.6176Z" fill="#73314F"/>
    <path d="M128.783 36.1531V42.1825C128.783 43.0794 128.335 43.353 127.745 43.353H127.486C126.877 43.353 126.448 43.0794 126.448 42.1825V36.4278C126.448 34.3604 125.458 33.1389 123.831 33.1389C121.901 33.1389 120.648 34.4842 120.648 36.6515V42.1825C120.648 43.0794 120.2 43.353 119.61 43.353H119.354C118.745 43.353 118.316 43.0794 118.316 42.1825V26.4104C118.316 26.3354 118.694 26.1367 119.165 26.1367C119.876 26.1367 120.651 26.5352 120.651 28.254V33.1618C121.477 31.8415 122.655 30.9696 124.401 30.9696C127.392 30.9717 128.783 33.1639 128.783 36.1531Z" fill="#73314F"/>
    <path d="M24.5938 48.5547C37.8486 48.5547 48.5938 37.8095 48.5938 24.5547C48.5938 11.2999 37.8486 0.554688 24.5938 0.554688C11.3389 0.554688 0.59375 11.2999 0.59375 24.5547C0.59375 37.8095 11.3389 48.5547 24.5938 48.5547Z" fill="#73314F"/>
    <path d="M36.3639 28.713C34.7552 26.3585 32.2456 25.1214 27.7017 24.4472C24.5431 23.9738 22.7312 22.1582 22.7312 19.4749C22.7312 16.7645 24.9036 14.5588 27.5747 14.5588C30.3819 14.5588 32.4192 16.6261 32.4192 19.4749C32.4192 19.6892 32.3908 20.0232 32.3908 20.0263L32.3847 20.1033L32.4558 20.1304C32.4903 20.1439 33.2866 20.4238 33.7995 20.0097C34.3652 19.5539 34.1966 18.4167 34.1245 18.0734C33.8082 16.5904 32.9923 15.2687 31.82 14.3403C30.6033 13.3812 29.11 12.8633 27.5747 12.868C25.8171 12.8533 24.1228 13.5395 22.85 14.7814C22.2302 15.3867 21.7375 16.1151 21.4018 16.9221C21.0662 17.729 20.8948 18.5977 20.898 19.4749C20.898 23.0904 23.3467 25.6135 27.4478 26.2284C31.5103 26.836 33.6065 27.8234 34.9238 29.7514C36.4228 31.9436 36.0166 35.3469 36.0115 35.3812C35.9526 35.8432 36.236 36.1616 36.7681 36.2344C36.8065 36.2394 36.8452 36.2419 36.8839 36.2417C37.3917 36.2417 37.7025 36.019 37.7543 35.6174C37.7757 35.4437 38.2611 31.4889 36.3639 28.713Z" fill="white"/>
    <path d="M19.5843 24.6795C19.6453 24.1592 19.3995 23.8575 19.045 23.7087C18.914 23.6536 15.8458 22.4893 15.8458 19.6572C15.8458 16.9125 17.6648 15.7264 19.368 15.5329C19.568 15.5094 19.7698 15.5074 19.9703 15.5267L20.0028 15.4486C20.0139 15.4205 20.2739 14.7432 19.8139 14.2968C19.2573 13.7558 18.2346 14.0066 18.1889 14.0159C17.3225 14.2105 16.5639 14.6475 15.86 15.3529C15.2506 15.9626 14.235 17.3297 14.235 19.6572C14.235 21.3542 15.0983 22.8982 16.7995 24.2466C15.795 24.6628 13.5353 25.7969 12.3917 27.8934C11.0135 30.4207 11.4106 33.1643 11.4278 33.2798C11.4705 33.5555 11.6543 33.8843 12.2952 33.8843C12.3401 33.8845 12.3849 33.881 12.4292 33.8739C12.9574 33.7907 13.2326 33.464 13.1635 32.9978C13.1229 32.7637 12.7949 30.6495 13.8196 28.7715C14.9267 26.7416 17.1712 25.5555 18.8317 25.4702C19.2238 25.4504 19.5224 25.1841 19.5843 24.6795Z" fill="white"/>
    <path d="M22.2021 27.2578H22.1909C21.5054 27.2578 20.9112 27.778 20.5334 28.2098C19.9523 28.883 19.4752 29.6434 19.1187 30.4645C18.164 32.6661 18.556 35.1756 18.6444 35.6563C18.7134 36.0413 19.0039 36.2358 19.5066 36.2358C19.5601 36.2357 19.6134 36.2308 19.6661 36.2213C20.2094 36.1172 20.4969 35.7739 20.4156 35.3192C20.3638 35.0799 19.9291 32.9262 20.6797 31.1959C21.3287 29.6997 22.4926 28.4699 23.1974 28.188L23.2848 28.1536L23.2573 28.0621C23.2543 28.0538 23.0034 27.2641 22.2021 27.2578Z" fill="white"/>
    </g>
    <defs>
    <clipPath id="clip0_266_245">
    <rect width="130" height="48" fill="white" transform="translate(0.59375 0.554688)"/>
    </clipPath>
    </defs>
    </svg>
