<svg width="29" height="19" viewBox="0 0 29 19" fill="none" xmlns="http://www.w3.org/2000/svg">
<g clip-path="url(#clip0_7096_51419)">
<path d="M27.84 2.87638H1.821C1.69677 2.87638 1.57376 2.85191 1.45898 2.80437C1.34421 2.75682 1.23992 2.68714 1.15208 2.5993C1.06423 2.51145 0.994551 2.40717 0.94701 2.29239C0.899469 2.17762 0.875 2.05461 0.875 1.93038C0.875 1.80614 0.899469 1.68313 0.94701 1.56836C0.994551 1.45358 1.06423 1.3493 1.15208 1.26145C1.23992 1.17361 1.34421 1.10393 1.45898 1.05639C1.57376 1.00884 1.69677 0.984375 1.821 0.984375H27.84C27.9642 0.984375 28.0872 1.00884 28.202 1.05639C28.3168 1.10393 28.4211 1.17361 28.5089 1.26145C28.5968 1.3493 28.6664 1.45358 28.714 1.56836C28.7615 1.68313 28.786 1.80614 28.786 1.93038C28.786 2.05461 28.7615 2.17762 28.714 2.29239C28.6664 2.40717 28.5968 2.51145 28.5089 2.5993C28.4211 2.68714 28.3168 2.75682 28.202 2.80437C28.0872 2.85191 27.9642 2.87638 27.84 2.87638Z" fill="#0D0D0D"/>
<path d="M14.594 10.4467H1.821C1.57011 10.4467 1.32949 10.347 1.15208 10.1696C0.974668 9.9922 0.875 9.75158 0.875 9.50069C0.875 9.24979 0.974668 9.00917 1.15208 8.83176C1.32949 8.65435 1.57011 8.55469 1.821 8.55469H14.594C14.8449 8.55469 15.0855 8.65435 15.2629 8.83176C15.4403 9.00917 15.54 9.24979 15.54 9.50069C15.54 9.75158 15.4403 9.9922 15.2629 10.1696C15.0855 10.347 14.8449 10.4467 14.594 10.4467Z" fill="#0D0D0D"/>
<path d="M14.594 18.017H1.821C1.57011 18.017 1.32949 17.9173 1.15208 17.7399C0.974668 17.5625 0.875 17.3219 0.875 17.071C0.875 16.8201 0.974668 16.5795 1.15208 16.4021C1.32949 16.2247 1.57011 16.125 1.821 16.125H14.594C14.8449 16.125 15.0855 16.2247 15.2629 16.4021C15.4403 16.5795 15.54 16.8201 15.54 17.071C15.54 17.3219 15.4403 17.5625 15.2629 17.7399C15.0855 17.9173 14.8449 18.017 14.594 18.017Z" fill="#0D0D0D"/>
</g>
<defs>
<clipPath id="clip0_7096_51419">
<rect width="27.912" height="17.031" fill="white" transform="translate(0.875 0.984375)"/>
</clipPath>
</defs>
</svg>
