<svg width="28" height="28" viewBox="0 0 28 28" fill="none" xmlns="http://www.w3.org/2000/svg">
<g clip-path="url(#clip0_932_951)">
<path d="M11.099 9.51005H11.0992C11.5999 9.50961 12.0801 9.31071 12.4345 8.95693C12.7889 8.60315 12.9886 8.12332 12.99 7.62256V7.62217V1.81906V1.81893C12.9895 1.31759 12.7902 0.836912 12.4357 0.482413C12.0812 0.127914 11.6005 -0.0714357 11.0992 -0.071875H11.099L1.8171 -0.0718751L1.81697 -0.0718749C1.31564 -0.0714357 0.834959 0.127914 0.48046 0.482413C0.125961 0.836912 -0.0733889 1.31759 -0.0738281 1.81893V1.81906L-0.0738284 7.62064L-0.0738279 7.6209C-0.0729498 8.12195 0.126594 8.6022 0.481045 8.95634C0.835496 9.31048 1.31592 9.50961 1.81697 9.51005H1.8171H11.099ZM1.51327 1.51523C1.59394 1.43456 1.70325 1.38909 1.81733 1.38875H11.0988C11.2129 1.38909 11.3222 1.43456 11.4029 1.51523C11.4836 1.59594 11.529 1.70531 11.5293 1.81945V7.62177C11.529 7.73591 11.4836 7.84529 11.4029 7.926C11.3222 8.00667 11.2129 8.05213 11.0988 8.05248C11.0987 8.05248 11.0987 8.05248 11.0986 8.05248H1.8175C1.81744 8.05248 1.81738 8.05248 1.81733 8.05248C1.70325 8.05213 1.59394 8.00667 1.51327 7.926C1.43261 7.84533 1.38714 7.73602 1.38679 7.62194V1.81928C1.38714 1.7052 1.43261 1.5959 1.51327 1.51523Z" fill="#292929" stroke="#292929" stroke-width="0.3"/>
<path d="M1.81697 28.0738H1.8171H11.099V27.9238L11.0992 28.0738C11.5996 28.0734 12.0796 27.8747 12.4339 27.5213C12.7883 27.1679 12.9882 26.6885 12.99 26.188V26.1875V13.4206V13.4205C12.9895 12.9192 12.7902 12.4385 12.4357 12.084C12.0812 11.7295 11.6005 11.5301 11.0992 11.5297H11.099L1.8171 11.5297L1.81697 11.5297C1.31564 11.5301 0.834959 11.7295 0.48046 12.084C0.125961 12.4385 -0.0733889 12.9192 -0.0738281 13.4205V13.4206L-0.0738291 26.1875L-0.0738272 26.188C-0.0720729 26.6885 0.127857 27.1679 0.482214 27.5213C0.836571 27.8747 1.3165 28.0734 1.81697 28.0738ZM1.51327 13.1168C1.59393 13.0361 1.70323 12.9907 1.81729 12.9903H11.0988C11.2129 12.9907 11.3222 13.0361 11.4029 13.1168C11.4836 13.1975 11.529 13.3069 11.5293 13.421V26.1871C11.529 26.3012 11.4836 26.4106 11.4029 26.4913C11.3222 26.5719 11.213 26.6174 11.0989 26.6178C11.0988 26.6178 11.0987 26.6178 11.0986 26.6178H1.8175C1.81739 26.6178 1.81729 26.6178 1.81718 26.6178C1.70315 26.6174 1.59391 26.5719 1.51327 26.4913C1.43261 26.4106 1.38714 26.3013 1.38679 26.1872V13.4208C1.38714 13.3068 1.43261 13.1975 1.51327 13.1168Z" fill="#4F7D7D" stroke="#4F7D7D" stroke-width="0.3"/>
<path d="M16.9005 28.0725H16.9006H26.1825V27.9225L26.1827 28.0725C26.6834 28.0721 27.1636 27.8732 27.518 27.5194C27.8724 27.1656 28.0721 26.6858 28.0735 26.1851V26.1847V20.3816V20.3814C28.073 19.8801 27.8737 19.3994 27.5192 19.0449C27.1647 18.6904 26.684 18.4911 26.1827 18.4906H26.1825L16.9006 18.4906L16.9005 18.4906C16.3994 18.4911 15.919 18.6902 15.5645 19.0443C15.2101 19.3985 15.0105 19.8787 15.0097 20.3798V20.38L15.0097 26.1831L15.0097 26.1834C15.0105 26.6844 15.2101 27.1647 15.5645 27.5188C15.919 27.873 16.3994 28.0721 16.9005 28.0725ZM16.5968 20.0777C16.6774 19.9971 16.7867 19.9516 16.9008 19.9512H26.1823C26.2964 19.9516 26.4057 19.9971 26.4864 20.0777C26.5671 20.1584 26.6125 20.2678 26.6128 20.3819V26.1843C26.6125 26.2984 26.5671 26.4078 26.4864 26.4885C26.4057 26.5692 26.2964 26.6146 26.1823 26.615C26.1822 26.615 26.1822 26.615 26.1821 26.615H16.901C16.9009 26.615 16.9009 26.615 16.9008 26.615C16.7867 26.6146 16.6774 26.5692 16.5968 26.4885C16.5161 26.4078 16.4706 26.2985 16.4703 26.1844V20.3818C16.4706 20.2677 16.5161 20.1584 16.5968 20.0777Z" fill="#292929" stroke="#292929" stroke-width="0.3"/>
<path d="M26.1825 16.4722H26.1827C26.6831 16.4718 27.1631 16.2731 27.5174 15.9197C27.8718 15.5663 28.0717 15.0869 28.0735 14.5864V14.5859V1.81906V1.81893C28.073 1.31759 27.8737 0.836912 27.5192 0.482413C27.1647 0.127914 26.684 -0.0714357 26.1827 -0.071875H26.1825L16.9006 -0.0718751L16.9005 -0.0718749C16.3991 -0.0714357 15.9185 0.127914 15.564 0.482413C15.2095 0.836912 15.0101 1.31759 15.0097 1.81893V1.81906L15.0097 14.5859L15.0097 14.5864C15.0114 15.0869 15.2114 15.5663 15.5657 15.9197C15.9201 16.2731 16.4 16.4718 16.9005 16.4722H16.9006H26.1825ZM16.5968 1.51523C16.6774 1.43456 16.7867 1.38909 16.9008 1.38875H26.1823C26.2964 1.38909 26.4057 1.43456 26.4864 1.51523C26.5671 1.59594 26.6125 1.70531 26.6128 1.81945V14.5855C26.6125 14.6996 26.5671 14.809 26.4864 14.8897C26.4056 14.9704 26.2963 15.0159 26.1821 15.0162H16.901C16.7869 15.0159 16.6775 14.9704 16.5968 14.8897C16.5161 14.8091 16.4706 14.6998 16.4703 14.5857V1.81928C16.4706 1.7052 16.5161 1.59589 16.5968 1.51523Z" fill="#4F7D7D" stroke="#4F7D7D" stroke-width="0.3"/>
</g>
<defs>
<clipPath id="clip0_932_951">
<rect width="28" height="28" fill="white"/>
</clipPath>
</defs>
</svg>
