<svg width="179" height="165" viewBox="0 0 179 165" fill="none" xmlns="http://www.w3.org/2000/svg">
<g filter="url(#filter0_d_2_1456)">
<g filter="url(#filter1_i_2_1456)">
<g clip-path="url(#clip0_2_1456)">
<rect x="14.8835" y="19.8735" width="137.127" height="137.127" rx="68.5633" fill="#D9E3E4"/>
<path d="M101.081 127.233L70.3219 127.233" stroke="#292929" stroke-linecap="round" stroke-linejoin="round"/>
<path d="M56.7284 68.4057L51.2811 61.7432" stroke="#5E233E" stroke-width="2" stroke-linecap="round" stroke-linejoin="round"/>
<path d="M61.1482 65.3713L62.0334 60.0396" stroke="#5E233E" stroke-width="2" stroke-linecap="round" stroke-linejoin="round"/>
<path d="M54.2104 72.3316L48.8835 71.4177" stroke="#5E233E" stroke-width="2" stroke-linecap="round" stroke-linejoin="round"/>
<path d="M85.7046 44.9309C91.1337 44.9309 94.581 48.4728 96.7106 53.1431C98.8441 57.8216 99.5652 63.4741 99.5652 67.2502H101.065C101.065 63.3366 100.325 57.4544 98.0754 52.5207C95.8219 47.5788 91.9639 43.4309 85.7046 43.4309V44.9309ZM85.7046 43.4309C79.6093 43.4309 75.7171 46.0038 73.3853 49.6299C71.085 53.2068 70.344 57.7391 70.344 61.6575H71.844C71.844 57.8861 72.564 53.6801 74.6469 50.4412C76.6982 47.2514 80.1113 44.9309 85.7046 44.9309V43.4309Z" fill="#292929"/>
<path d="M85.7042 42.6235C92.0772 42.6235 96.096 46.5765 98.5621 51.7142C101.037 56.8693 101.872 63.0935 101.872 67.2498H103.372C103.372 62.9473 102.515 56.4834 99.9143 51.0651C97.3052 45.6294 92.8652 41.1235 85.7042 41.1235V42.6235ZM85.7042 41.1235C78.6837 41.1235 74.2169 44.1136 71.5406 48.247C68.8949 52.3332 68.0367 57.4719 68.0367 61.7798H69.5367C69.5367 57.629 70.3702 52.8145 72.7997 49.0623C75.1986 45.3572 79.1906 42.6235 85.7042 42.6235V41.1235Z" fill="#292929"/>
<path fill-rule="evenodd" clip-rule="evenodd" d="M67.5599 69.4204C62.599 69.4204 58.5775 73.4419 58.5775 78.4027V107.142C58.5775 112.103 62.599 116.125 67.5599 116.125H103.255C108.216 116.125 112.238 112.103 112.238 107.142V78.4028C112.238 73.4419 108.216 69.4204 103.255 69.4204H67.5599ZM90.3739 87.3115C90.3739 89.2394 89.276 90.9108 87.6712 91.7345L90.181 101.469C90.2787 101.848 89.9925 102.218 89.6012 102.218H81.2097C80.8183 102.218 80.5321 101.848 80.6298 101.469L83.1396 91.7345C81.5349 90.9108 80.4369 89.2394 80.4369 87.3115C80.4369 84.5675 82.6614 82.343 85.4054 82.343C88.1495 82.343 90.3739 84.5675 90.3739 87.3115Z" fill="url(#paint0_linear_2_1456)"/>
</g>
</g>
<rect x="5.69252" y="95.9514" width="7.49392" height="10.4089" rx="3.74696" transform="rotate(-10.0805 5.69252 95.9514)" stroke="#743250" stroke-width="3"/>
<path d="M14.242 98.8214L36.1985 95.0535" stroke="#743250" stroke-width="3" stroke-linecap="round"/>
<path d="M35.0299 99.8018L34.4726 95.6895" stroke="#743250" stroke-width="3" stroke-linecap="round"/>
<path d="M153.029 114.172C153.029 114.172 149.311 109.247 152.646 103.88C152.646 103.88 156.311 105.546 156.752 106.93C156.752 106.93 154.153 112.115 159.391 117.504C159.364 117.506 154.509 115.828 153.029 114.172Z" fill="url(#paint1_linear_2_1456)"/>
<path d="M169.308 123.346C169.308 123.346 160.204 124.655 153.035 114.181C153.035 114.181 161.317 119.585 166.466 116.849C166.464 116.821 169.54 119.766 169.308 123.346Z" fill="#73314F"/>
<path d="M42.626 9.57419C42.626 9.57419 45.4273 6.17175 49.6968 7.59932C49.6968 7.59932 49.1317 10.4164 48.2555 10.9614C48.2555 10.9614 44.2301 9.99335 41.3373 14.5266C41.357 14.5254 41.715 10.8715 42.626 9.57419Z" fill="url(#paint2_linear_2_1456)"/>
<path d="M38.9293 22.3898C38.9293 22.3898 36.5179 16.2924 42.6194 9.57671C42.6194 9.57671 40.2448 16.2118 42.9956 19.3475C42.9747 19.329 41.4513 21.9653 38.9293 22.3898Z" fill="#73314F"/>
<path d="M86.3877 25.3705C86.3877 25.3705 86.012 23.8702 87.5145 21.5155C87.5145 21.5155 88.9225 21.2975 89.6285 21.5098C90.3354 21.7389 91.4925 22.1446 91.3636 22.5412C91.2178 22.9388 90.6018 24.2604 90.5075 25.5346C90.4132 26.8087 89.3821 25.6683 88.2795 25.9022C87.159 26.1202 86.4134 26.0963 86.3877 25.3705Z" fill="#89AAAD"/>
<path d="M137.164 24.16C137.164 24.16 136.436 21.2497 139.35 16.6819C139.35 16.6819 142.081 16.2591 143.451 16.6709C144.822 17.1154 147.067 17.9023 146.817 18.6716C146.534 19.4429 145.339 22.0067 145.156 24.4783C144.973 26.9498 142.973 24.7377 140.834 25.1914C138.695 25.6451 137.247 25.566 137.164 24.16Z" fill="url(#paint3_linear_2_1456)"/>
<path d="M145.359 77.7198C145.359 77.7198 144.406 73.912 148.219 67.9354C148.219 67.9354 151.793 67.3821 153.585 67.9209C155.379 68.5025 158.316 69.5321 157.989 70.5387C157.619 71.5479 156.055 74.9024 155.816 78.1363C155.577 81.3701 152.96 78.4756 150.161 79.0692C147.36 79.6201 145.467 79.5595 145.359 77.7198Z" fill="#4F7D7D"/>
<path d="M166.857 58.6362C166.857 58.6362 167.82 56.8301 171.382 55.8434C171.382 55.8434 172.973 56.8677 173.46 57.7139C173.948 58.5601 174.736 59.996 174.242 60.268C173.748 60.54 171.969 61.2762 170.725 62.4427C169.506 63.6077 169.483 61.5679 168.224 60.8157C166.942 60.0891 166.244 59.3768 166.857 58.6362Z" fill="#4F7D7D"/>
<path d="M108.199 7.88243C108.199 7.88243 110.822 4.97963 117.843 4.83778C117.843 4.83778 120.297 7.48755 120.807 9.26012C121.316 11.0327 122.124 14.0495 121.06 14.3373C120.04 14.6225 116.376 15.153 113.584 16.7139C110.791 18.2748 111.698 14.5264 109.691 12.5714C107.68 10.5715 106.73 8.96003 108.199 7.88243Z" fill="#4F7D7D"/>
<path d="M161.433 34.4393C161.433 34.4393 162.418 33.3497 165.053 33.2965C165.053 33.2965 165.974 34.2911 166.166 34.9565C166.357 35.6218 166.66 36.7542 166.261 36.8622C165.878 36.9693 164.503 37.1684 163.454 37.7543C162.406 38.3402 162.747 36.9332 161.993 36.1994C161.239 35.4487 160.882 34.8438 161.433 34.4393Z" fill="#73314F"/>
<path d="M54.9418 32.0567C54.9418 32.0567 57.0012 31.3725 60.4383 33.2191C60.4383 33.2191 60.9108 35.1629 60.6631 36.1761C60.4408 37.1877 59.9753 38.8537 59.402 38.6826C58.8301 38.5369 56.9179 37.8042 55.1498 37.78C53.3831 37.7813 54.8287 36.2369 54.4071 34.7254C53.96 33.2154 53.9241 32.1677 54.9418 32.0567Z" fill="url(#paint4_linear_2_1456)"/>
</g>
<defs>
<filter id="filter0_d_2_1456" x="0.789612" y="4.83789" width="177.609" height="160.162" filterUnits="userSpaceOnUse" color-interpolation-filters="sRGB">
<feFlood flood-opacity="0" result="BackgroundImageFix"/>
<feColorMatrix in="SourceAlpha" type="matrix" values="0 0 0 0 0 0 0 0 0 0 0 0 0 0 0 0 0 0 127 0" result="hardAlpha"/>
<feOffset dy="4"/>
<feGaussianBlur stdDeviation="2"/>
<feComposite in2="hardAlpha" operator="out"/>
<feColorMatrix type="matrix" values="0 0 0 0 0 0 0 0 0 0 0 0 0 0 0 0 0 0 0.25 0"/>
<feBlend mode="normal" in2="BackgroundImageFix" result="effect1_dropShadow_2_1456"/>
<feBlend mode="normal" in="SourceGraphic" in2="effect1_dropShadow_2_1456" result="shape"/>
</filter>
<filter id="filter1_i_2_1456" x="14.8835" y="19.8735" width="137.127" height="137.126" filterUnits="userSpaceOnUse" color-interpolation-filters="sRGB">
<feFlood flood-opacity="0" result="BackgroundImageFix"/>
<feBlend mode="normal" in="SourceGraphic" in2="BackgroundImageFix" result="shape"/>
<feColorMatrix in="SourceAlpha" type="matrix" values="0 0 0 0 0 0 0 0 0 0 0 0 0 0 0 0 0 0 127 0" result="hardAlpha"/>
<feOffset/>
<feGaussianBlur stdDeviation="2"/>
<feComposite in2="hardAlpha" operator="arithmetic" k2="-1" k3="1"/>
<feColorMatrix type="matrix" values="0 0 0 0 0 0 0 0 0 0 0 0 0 0 0 0 0 0 0.1 0"/>
<feBlend mode="normal" in2="shape" result="effect1_innerShadow_2_1456"/>
</filter>
<linearGradient id="paint0_linear_2_1456" x1="72.0204" y1="80.4976" x2="87.2466" y2="115.338" gradientUnits="userSpaceOnUse">
<stop offset="0.161458" stop-color="#73314F"/>
<stop offset="1" stop-color="#275C61"/>
</linearGradient>
<linearGradient id="paint1_linear_2_1456" x1="159.391" y1="117.504" x2="151.918" y2="103.474" gradientUnits="userSpaceOnUse">
<stop stop-color="#73314F"/>
<stop offset="0.376449" stop-color="#73314F" stop-opacity="0.9"/>
<stop offset="1" stop-color="#EB885A"/>
<stop offset="1" stop-color="#D87446"/>
</linearGradient>
<linearGradient id="paint2_linear_2_1456" x1="50.0734" y1="14.0137" x2="47.9494" y2="5.81372" gradientUnits="userSpaceOnUse">
<stop stop-color="#73314F"/>
<stop offset="0.376449" stop-color="#73314F" stop-opacity="0.9"/>
<stop offset="1" stop-color="#EB885A"/>
<stop offset="1" stop-color="#D87446"/>
</linearGradient>
<linearGradient id="paint3_linear_2_1456" x1="147.245" y1="25.4985" x2="144.023" y2="14.6012" gradientUnits="userSpaceOnUse">
<stop stop-color="#73314F"/>
<stop offset="0.376449" stop-color="#73314F" stop-opacity="0.9"/>
<stop offset="1" stop-color="#EB885A"/>
<stop offset="1" stop-color="#D87446"/>
</linearGradient>
<linearGradient id="paint4_linear_2_1456" x1="60.9304" y1="38.6104" x2="58.3067" y2="30.6135" gradientUnits="userSpaceOnUse">
<stop stop-color="#73314F"/>
<stop offset="0.376449" stop-color="#73314F" stop-opacity="0.9"/>
<stop offset="1" stop-color="#EB885A"/>
<stop offset="1" stop-color="#D87446"/>
</linearGradient>
<clipPath id="clip0_2_1456">
<rect x="14.8835" y="19.8735" width="137.127" height="137.127" rx="68.5633" fill="white"/>
</clipPath>
</defs>
</svg>
