<svg width="22" height="29" viewBox="0 0 22 29" fill="none" xmlns="http://www.w3.org/2000/svg">
<path d="M14.4546 9.64746H10.0005C9.77397 9.64746 9.59033 9.46387 9.59033 9.2373C9.59033 9.01073 9.77397 8.82715 10.0005 8.82715H14.4546C14.6811 8.82715 14.8648 9.01073 14.8648 9.2373C14.8648 9.46387 14.6812 9.64746 14.4546 9.64746Z" fill="#292929"/>
<path d="M18.9088 7.54199H10.0005C9.77397 7.54199 9.59033 7.35841 9.59033 7.13184C9.59033 6.90527 9.77397 6.72168 10.0005 6.72168H18.9088C19.1353 6.72168 19.319 6.90527 19.319 7.13184C19.319 7.35841 19.1353 7.54199 18.9088 7.54199Z" fill="#292929"/>
<path d="M14.4546 16.521H10.0005C9.77397 16.521 9.59033 16.3374 9.59033 16.1108C9.59033 15.8843 9.77397 15.7007 10.0005 15.7007H14.4546C14.6811 15.7007 14.8648 15.8843 14.8648 16.1108C14.8648 16.3374 14.6812 16.521 14.4546 16.521Z" fill="#292929"/>
<path d="M18.9088 14.4155H10.0005C9.77397 14.4155 9.59033 14.2319 9.59033 14.0054C9.59033 13.7788 9.77397 13.5952 10.0005 13.5952H18.9088C19.1353 13.5952 19.319 13.7788 19.319 14.0054C19.319 14.2319 19.1353 14.4155 18.9088 14.4155Z" fill="#292929"/>
<path d="M14.4546 23.3945H10.0005C9.77397 23.3945 9.59033 23.2109 9.59033 22.9844C9.59033 22.7578 9.77397 22.5742 10.0005 22.5742H14.4546C14.6811 22.5742 14.8648 22.7578 14.8648 22.9844C14.8648 23.2109 14.6812 23.3945 14.4546 23.3945Z" fill="#292929"/>
<path d="M18.9088 21.2891H10.0005C9.77397 21.2891 9.59033 21.1055 9.59033 20.8789C9.59033 20.6523 9.77397 20.4688 10.0005 20.4688H18.9088C19.1353 20.4688 19.319 20.6523 19.319 20.8789C19.319 21.1055 19.1353 21.2891 18.9088 21.2891Z" fill="#292929"/>
<path d="M14.851 4.1606H7.75786C7.08367 4.1606 6.53516 3.61214 6.53516 2.93795V1.51958C6.53521 0.845391 7.08367 0.296875 7.75786 0.296875H14.851C15.5252 0.296875 16.0737 0.845391 16.0737 1.51958V2.93795C16.0737 3.61214 15.5252 4.1606 14.851 4.1606ZM7.75786 1.11719C7.53599 1.11719 7.35547 1.29771 7.35547 1.51958V2.93795C7.35547 3.15982 7.53599 3.34029 7.75786 3.34029H14.851C15.0729 3.34029 15.2534 3.15977 15.2534 2.93795V1.51958C15.2534 1.29766 15.0729 1.11719 14.851 1.11719H7.75786Z" fill="#292929"/>
<path d="M6.21413 10.1966H4.39123C3.78403 10.1966 3.29004 9.70261 3.29004 9.09542V7.27257C3.29004 6.66538 3.78403 6.17139 4.39123 6.17139H6.21413C6.82132 6.17139 7.31531 6.66538 7.31531 7.27257V9.09547C7.31531 9.70261 6.82132 10.1966 6.21413 10.1966ZM4.39123 6.9917C4.23635 6.9917 4.11035 7.1177 4.11035 7.27257V9.09547C4.11035 9.25035 4.23635 9.37635 4.39123 9.37635H6.21413C6.369 9.37635 6.495 9.25035 6.495 9.09547V7.27257C6.495 7.1177 6.369 6.9917 6.21413 6.9917H4.39123Z" fill="#292929"/>
<path d="M6.21413 17.0702H4.39123C3.78403 17.0702 3.29004 16.5762 3.29004 15.969V14.1461C3.29004 13.5389 3.78403 13.0449 4.39123 13.0449H6.21413C6.82132 13.0449 7.31531 13.5389 7.31531 14.1461V15.969C7.31531 16.5762 6.82132 17.0702 6.21413 17.0702ZM4.39123 13.8652C4.23635 13.8652 4.11035 13.9912 4.11035 14.1461V15.969C4.11035 16.1239 4.23635 16.2499 4.39123 16.2499H6.21413C6.369 16.2499 6.495 16.1239 6.495 15.969V14.1461C6.495 13.9912 6.369 13.8652 6.21413 13.8652H4.39123Z" fill="#292929"/>
<path d="M6.21413 23.9438H4.39123C3.78403 23.9438 3.29004 23.4498 3.29004 22.8425V21.0197C3.29004 20.4125 3.78403 19.9185 4.39123 19.9185H6.21413C6.82132 19.9185 7.31531 20.4125 7.31531 21.0197V22.8425C7.31531 23.4498 6.82132 23.9438 6.21413 23.9438ZM4.39123 20.7388C4.23635 20.7388 4.11035 20.8649 4.11035 21.0198V22.8426C4.11035 22.9975 4.23635 23.1235 4.39123 23.1235H6.21413C6.369 23.1235 6.495 22.9975 6.495 22.8426V21.0198C6.495 20.8649 6.369 20.7388 6.21413 20.7388H4.39123Z" fill="#292929"/>
<path d="M20.03 28.2971H2.5791C1.59932 28.2971 0.802246 27.5 0.802246 26.5203V3.59564C0.802246 2.61592 1.59937 1.81885 2.5791 1.81885H5.03703C5.26354 1.81885 5.44718 2.00243 5.44718 2.229C5.44718 2.45557 5.26354 2.63916 5.03703 2.63916H2.5791C2.05164 2.63916 1.62256 3.06824 1.62256 3.59564V26.5202C1.62256 27.0477 2.05169 27.4767 2.5791 27.4767H20.03C20.5574 27.4767 20.9865 27.0476 20.9865 26.5202V3.59564C20.9865 3.06818 20.5574 2.63916 20.03 2.63916H17.5721C17.3455 2.63916 17.1619 2.45557 17.1619 2.229C17.1619 2.00243 17.3455 1.81885 17.5721 1.81885H20.03C21.0098 1.81885 21.8068 2.61592 21.8068 3.59564V26.5202C21.8068 27.5 21.0097 28.2971 20.03 28.2971Z" fill="#292929"/>
</svg>
