<svg width="27" height="31" viewBox="0 0 27 31" fill="none" xmlns="http://www.w3.org/2000/svg">
<path d="M13.625 29.25H3.34375C2.95421 29.25 2.58063 29.1051 2.30519 28.8473C2.02974 28.5894 1.875 28.2397 1.875 27.875V3.125C1.875 2.76033 2.02974 2.41059 2.30519 2.15273C2.58063 1.89487 2.95421 1.75 3.34375 1.75H23.9062C24.2958 1.75 24.6694 1.89487 24.9448 2.15273C25.2203 2.41059 25.375 2.76033 25.375 3.125V15.5M22.0703 29.25V20.3125" stroke="#979797" stroke-width="3" stroke-linecap="round" stroke-linejoin="round"/>
<path d="M18.7656 22.7188L19.8672 21.6875L22.0703 19.625L24.2734 21.6875L25.375 22.7188" stroke="#979797" stroke-width="3" stroke-linecap="round" stroke-linejoin="round"/>
<path d="M7.75 10H19.5M7.75 15.5H13.625" stroke="#979797" stroke-width="3" stroke-linecap="round"/>
</svg>
