<svg width="223" height="173" viewBox="0 0 223 173" fill="none" xmlns="http://www.w3.org/2000/svg">
<g filter="url(#filter0_i_2_2239)">
<g clip-path="url(#clip0_2_2239)">
<rect x="0.953125" y="37" width="136" height="136" rx="68" fill="#D9E3E4"/>
<path d="M144.082 92C144.082 88.6863 141.396 86 138.082 86H102.86C99.5465 86 96.8602 88.6863 96.8602 92V194H144.082V92Z" fill="url(#paint0_linear_2_2239)"/>
<path d="M71.1758 146C71.1758 142.686 68.4895 140 65.1758 140H29.954C26.6403 140 23.954 142.686 23.954 146V200H71.1758V146Z" fill="url(#paint1_linear_2_2239)"/>
<g filter="url(#filter1_di_2_2239)">
<circle cx="20.0876" cy="67.7598" r="45.5388" transform="rotate(-65.4159 20.0876 67.7598)" stroke="#E3E3E3" stroke-width="25" shape-rendering="crispEdges"/>
</g>
<path d="M39.033 26.349C45.6992 29.3988 51.5306 34.0128 56.0317 39.799C60.5327 45.5852 63.5704 52.3725 64.8865 59.5841C66.2026 66.7957 65.7582 74.2184 63.5912 81.2215C61.4242 88.2246 57.5985 94.601 52.4393 99.8089" stroke="#73314F" stroke-width="25"/>
<g filter="url(#filter2_di_2_2239)">
<path d="M55.2742 96.8559C51.295 101.669 46.3705 105.614 40.8055 108.447C35.2404 111.28 29.1532 112.942 22.9204 113.328" stroke="#275C61" stroke-width="25"/>
</g>
<g filter="url(#filter3_di_2_2239)">
<path d="M24.4124 113.203C13.725 114.216 3.02248 111.43 -5.81434 105.334C-14.6512 99.2385 -21.0568 90.2233 -23.9054 79.8728C-26.7541 69.5224 -25.8635 58.4991 -21.3902 48.7402C-16.9169 38.9813 -9.14716 31.1113 0.553605 26.5133" stroke="#89AAAD" stroke-width="25"/>
</g>
</g>
</g>
<g filter="url(#filter4_d_2_2239)">
<path fill-rule="evenodd" clip-rule="evenodd" d="M100.956 20C99.0364 20 97.4805 21.5559 97.4805 23.4753V82.6403C97.4805 84.5596 99.0364 86.1156 100.956 86.1156H109.379L112.61 93.0394C113.027 93.9306 114.294 93.9307 114.71 93.0394L117.942 86.1156H198.994C200.913 86.1156 202.469 84.5596 202.469 82.6403V23.4753C202.469 21.5559 200.913 20 198.994 20H100.956Z" fill="white"/>
</g>
<g filter="url(#filter5_d_2_2239)">
<path fill-rule="evenodd" clip-rule="evenodd" d="M109.563 85.826L112.873 92.9169C113.185 93.5853 114.135 93.5853 114.447 92.9169L117.757 85.826H198.994C200.753 85.826 202.179 84.3997 202.179 82.6403V23.4753C202.179 21.7159 200.753 20.2896 198.994 20.2896H100.956C99.1963 20.2896 97.7701 21.7159 97.7701 23.4753V82.6403C97.7701 84.3997 99.1963 85.826 100.956 85.826H109.563ZM97.4805 23.4753C97.4805 21.5559 99.0364 20 100.956 20H198.994C200.913 20 202.469 21.5559 202.469 23.4753V82.6403C202.469 84.5596 200.913 86.1156 198.994 86.1156H117.942L114.71 93.0394C114.294 93.9307 113.027 93.9306 112.61 93.0394L109.379 86.1156H100.956C99.0364 86.1156 97.4805 84.5596 97.4805 82.6403V23.4753Z" fill="#E4E4E4"/>
</g>
<path d="M107.666 37.1326V36.938L107.851 36.8917C107.975 36.8546 108.055 36.799 108.092 36.7249C108.129 36.6507 108.148 36.5488 108.148 36.4191C108.154 36.0669 108.157 35.7116 108.157 35.3533C108.157 34.9888 108.157 34.6243 108.157 34.2598V33.8798C108.157 33.5215 108.157 33.1631 108.157 32.8048C108.157 32.4464 108.154 32.0881 108.148 31.7298C108.148 31.6 108.126 31.5012 108.083 31.4332C108.046 31.3591 107.966 31.3004 107.842 31.2571L107.666 31.2015V31.0069H109.899C110.801 31.0069 111.456 31.1768 111.864 31.5166C112.278 31.8502 112.485 32.292 112.485 32.8419C112.485 33.1878 112.398 33.5091 112.225 33.8057C112.059 34.096 111.781 34.3277 111.391 34.5007C111.002 34.6737 110.477 34.7602 109.816 34.7602H109.482C109.482 35.0197 109.482 35.2884 109.482 35.5665C109.482 35.8383 109.485 36.1163 109.492 36.4005C109.492 36.6538 109.606 36.8083 109.834 36.8639L110.112 36.938V37.1326H107.666ZM109.482 34.4914H109.872C110.18 34.4914 110.431 34.4451 110.622 34.3524C110.82 34.2536 110.965 34.0868 111.058 33.852C111.157 33.6172 111.206 33.2929 111.206 32.8789C111.206 32.465 111.154 32.1437 111.048 31.9151C110.95 31.6803 110.798 31.5166 110.594 31.4239C110.39 31.3251 110.137 31.2757 109.834 31.2757H109.492C109.485 31.702 109.482 32.1344 109.482 32.5731C109.482 33.0056 109.482 33.4411 109.482 33.8798V34.4914Z" fill="black"/>
<path d="M114.095 37.2624C113.743 37.2624 113.444 37.1635 113.196 36.9658C112.956 36.7619 112.835 36.4716 112.835 36.0947C112.835 35.7981 112.977 35.5263 113.261 35.2792C113.552 35.0259 114.006 34.8405 114.624 34.7231C114.729 34.6984 114.849 34.6768 114.985 34.6583C115.127 34.6335 115.266 34.6088 115.402 34.5841V33.9261C115.402 33.506 115.35 33.2156 115.245 33.055C115.14 32.8944 114.973 32.814 114.744 32.814H114.716C114.574 32.814 114.46 32.8604 114.373 32.9531C114.293 33.0396 114.241 33.1847 114.216 33.3886L114.188 33.5091C114.17 33.7562 114.105 33.9385 113.993 34.0559C113.882 34.1671 113.743 34.2227 113.576 34.2227C113.422 34.2227 113.292 34.1764 113.187 34.0837C113.088 33.9848 113.039 33.8582 113.039 33.7037C113.039 33.4504 113.125 33.2373 113.298 33.0643C113.471 32.8913 113.7 32.7615 113.984 32.675C114.275 32.5885 114.587 32.5453 114.92 32.5453C115.47 32.5453 115.89 32.6781 116.181 32.9438C116.471 33.2095 116.616 33.6419 116.616 34.2412V36.3078C116.616 36.5735 116.743 36.7063 116.996 36.7063H117.209L117.302 36.8083C117.191 36.9504 117.067 37.0585 116.931 37.1326C116.795 37.213 116.61 37.2531 116.375 37.2531C116.11 37.2531 115.896 37.1913 115.736 37.0678C115.581 36.938 115.479 36.7681 115.43 36.5581C115.232 36.7681 115.038 36.938 114.846 37.0678C114.655 37.1975 114.404 37.2624 114.095 37.2624ZM114.633 36.6693C114.756 36.6693 114.874 36.6415 114.985 36.5859C115.096 36.5303 115.235 36.4376 115.402 36.3078V34.8251C115.241 34.8498 115.078 34.8807 114.911 34.9177C114.645 34.9795 114.429 35.0938 114.262 35.2606C114.102 35.4274 114.021 35.653 114.021 35.9372C114.021 36.1843 114.077 36.3696 114.188 36.4932C114.305 36.6106 114.454 36.6693 114.633 36.6693Z" fill="black"/>
<path d="M117.485 37.1326V36.9566L117.624 36.9102C117.747 36.8793 117.831 36.8268 117.874 36.7527C117.924 36.6785 117.948 36.5797 117.948 36.4561V33.7408C117.942 33.6049 117.917 33.5029 117.874 33.435C117.831 33.3608 117.747 33.3114 117.624 33.2867L117.485 33.2496V33.0828L118.995 32.5453L119.107 32.6472L119.19 33.4628V33.5276C119.283 33.3546 119.4 33.194 119.542 33.0457C119.684 32.8975 119.839 32.777 120.006 32.6843C120.172 32.5916 120.339 32.5453 120.506 32.5453C120.741 32.5453 120.917 32.6071 121.034 32.7306C121.152 32.8542 121.21 33.0118 121.21 33.2033C121.21 33.4133 121.152 33.574 121.034 33.6852C120.917 33.7902 120.775 33.8427 120.608 33.8427C120.361 33.8427 120.148 33.7315 119.969 33.5091L119.95 33.4906C119.888 33.4164 119.817 33.3763 119.737 33.3701C119.663 33.3577 119.589 33.3948 119.514 33.4813C119.453 33.5431 119.394 33.6172 119.338 33.7037C119.289 33.784 119.243 33.8798 119.199 33.991V36.4191C119.199 36.5364 119.224 36.6353 119.273 36.7156C119.323 36.7897 119.406 36.8423 119.524 36.8732L119.802 36.9566V37.1326H117.485Z" fill="black"/>
<path d="M123.693 32.5453C124.083 32.5453 124.416 32.6256 124.694 32.7862C124.972 32.9469 125.185 33.1693 125.334 33.4535C125.488 33.7315 125.565 34.0528 125.565 34.4173C125.565 34.4976 125.562 34.5748 125.556 34.649C125.55 34.7169 125.537 34.7818 125.519 34.8436H122.729C122.736 35.48 122.853 35.9372 123.082 36.2152C123.316 36.4932 123.656 36.6322 124.101 36.6322C124.41 36.6322 124.66 36.5828 124.852 36.4839C125.043 36.3789 125.219 36.2337 125.38 36.0484L125.528 36.1874C125.343 36.5272 125.09 36.7928 124.768 36.9844C124.453 37.1697 124.076 37.2624 123.638 37.2624C123.199 37.2624 122.813 37.1697 122.479 36.9844C122.146 36.799 121.883 36.5334 121.692 36.1874C121.506 35.8352 121.414 35.4151 121.414 34.927C121.414 34.4204 121.522 33.991 121.738 33.6388C121.96 33.2867 122.244 33.0179 122.59 32.8326C122.943 32.6411 123.31 32.5453 123.693 32.5453ZM123.647 32.814C123.468 32.814 123.31 32.8666 123.174 32.9716C123.045 33.0704 122.94 33.2496 122.859 33.5091C122.785 33.7624 122.742 34.1207 122.729 34.5841H124.388C124.456 33.9601 124.432 33.5091 124.314 33.2311C124.197 32.9531 123.974 32.814 123.647 32.814Z" fill="black"/>
<path d="M126.037 37.1326V36.9566L126.186 36.9195C126.389 36.8577 126.491 36.7063 126.491 36.4654V33.7315C126.485 33.6018 126.464 33.5029 126.427 33.435C126.389 33.3608 126.309 33.3114 126.186 33.2867L126.037 33.2496V33.0828L127.539 32.5453L127.65 32.6472L127.715 33.2218C127.937 33.0241 128.184 32.8635 128.456 32.7399C128.734 32.6102 129.006 32.5453 129.272 32.5453C129.679 32.5453 129.991 32.6565 130.208 32.8789C130.43 33.1013 130.541 33.4411 130.541 33.8983V36.4747C130.541 36.7156 130.652 36.867 130.875 36.9288L130.977 36.9566V37.1326H128.845V36.9566L128.984 36.9195C129.188 36.8515 129.29 36.7002 129.29 36.4654V33.713C129.29 33.4967 129.244 33.3392 129.151 33.2403C129.058 33.1415 128.904 33.0921 128.688 33.0921C128.385 33.0921 128.07 33.2249 127.742 33.4906V36.4747C127.742 36.7156 127.851 36.867 128.067 36.9288L128.159 36.9566V37.1326H126.037Z" fill="black"/>
<path d="M133.056 37.2624C132.673 37.2624 132.37 37.1697 132.148 36.9844C131.931 36.7928 131.823 36.4839 131.823 36.0576C131.823 35.9093 131.823 35.7703 131.823 35.6406C131.829 35.5047 131.832 35.3471 131.832 35.168V32.9716H131.175V32.7677L131.425 32.7306C131.604 32.6998 131.755 32.6441 131.879 32.5638C132.009 32.4835 132.126 32.3723 132.231 32.2302L132.833 31.3961H133.111L133.084 32.6843H134.14V32.9716H133.074V36.1318C133.074 36.3542 133.121 36.521 133.213 36.6322C133.312 36.7434 133.433 36.799 133.575 36.799C133.698 36.799 133.81 36.7712 133.908 36.7156C134.007 36.6538 134.106 36.5735 134.205 36.4747L134.325 36.6137C134.208 36.8175 134.044 36.9782 133.834 37.0956C133.624 37.2068 133.365 37.2624 133.056 37.2624Z" fill="black"/>
<path d="M134.653 37.1326V36.9473L134.774 36.9102C134.996 36.8423 135.108 36.6878 135.108 36.4469V31.6742C135.108 31.5444 135.086 31.4487 135.043 31.3869C134.999 31.3189 134.916 31.2695 134.792 31.2386L134.653 31.2015V31.0254L136.22 30.627L136.368 30.7104L136.331 32.0171V33.2033C136.547 33.0241 136.782 32.8697 137.035 32.7399C137.295 32.6102 137.573 32.5453 137.869 32.5453C138.277 32.5453 138.595 32.6596 138.824 32.8882C139.059 33.1168 139.176 33.4689 139.176 33.9447V36.4561C139.176 36.5797 139.201 36.6785 139.25 36.7527C139.299 36.8268 139.386 36.8824 139.51 36.9195L139.593 36.9473V37.1326H137.48V36.9473L137.591 36.9102C137.814 36.8484 137.925 36.694 137.925 36.4469V33.7686C137.925 33.5153 137.882 33.3392 137.795 33.2403C137.709 33.1415 137.557 33.0921 137.341 33.0921C137.193 33.0921 137.035 33.1199 136.868 33.1755C136.708 33.2311 136.538 33.3238 136.359 33.4535V36.4654C136.359 36.589 136.383 36.6878 136.433 36.7619C136.482 36.8361 136.566 36.8886 136.683 36.9195L136.766 36.9473V37.1326H134.653Z" fill="black"/>
<path d="M142.282 37.2624C141.825 37.2624 141.424 37.1666 141.078 36.9751C140.738 36.7836 140.472 36.5117 140.281 36.1596C140.095 35.8074 140.003 35.3873 140.003 34.8992C140.003 34.4111 140.101 33.991 140.299 33.6388C140.503 33.2867 140.775 33.0179 141.115 32.8326C141.461 32.6411 141.85 32.5453 142.282 32.5453C142.715 32.5453 143.101 32.6411 143.441 32.8326C143.787 33.0179 144.059 33.2867 144.256 33.6388C144.46 33.9848 144.562 34.4049 144.562 34.8992C144.562 35.3873 144.466 35.8105 144.275 36.1688C144.089 36.521 143.827 36.7928 143.487 36.9844C143.147 37.1697 142.746 37.2624 142.282 37.2624ZM142.282 37.0029C142.505 37.0029 142.684 36.9442 142.82 36.8268C142.962 36.7033 143.064 36.4901 143.126 36.1874C143.187 35.8846 143.218 35.4614 143.218 34.9177C143.218 34.3679 143.187 33.9416 143.126 33.6388C143.064 33.3299 142.962 33.1168 142.82 32.9994C142.684 32.8758 142.505 32.814 142.282 32.814C142.06 32.814 141.881 32.8758 141.745 32.9994C141.609 33.1168 141.507 33.3299 141.439 33.6388C141.377 33.9416 141.346 34.3679 141.346 34.9177C141.346 35.4614 141.377 35.8846 141.439 36.1874C141.507 36.4901 141.609 36.7033 141.745 36.8268C141.881 36.9442 142.06 37.0029 142.282 37.0029Z" fill="black"/>
<path d="M147.35 37.2624C146.893 37.2624 146.492 37.1666 146.146 36.9751C145.806 36.7836 145.54 36.5117 145.349 36.1596C145.163 35.8074 145.071 35.3873 145.071 34.8992C145.071 34.4111 145.169 33.991 145.367 33.6388C145.571 33.2867 145.843 33.0179 146.183 32.8326C146.529 32.6411 146.918 32.5453 147.35 32.5453C147.783 32.5453 148.169 32.6411 148.509 32.8326C148.855 33.0179 149.127 33.2867 149.324 33.6388C149.528 33.9848 149.63 34.4049 149.63 34.8992C149.63 35.3873 149.534 35.8105 149.343 36.1688C149.158 36.521 148.895 36.7928 148.555 36.9844C148.215 37.1697 147.814 37.2624 147.35 37.2624ZM147.35 37.0029C147.573 37.0029 147.752 36.9442 147.888 36.8268C148.03 36.7033 148.132 36.4901 148.194 36.1874C148.255 35.8846 148.286 35.4614 148.286 34.9177C148.286 34.3679 148.255 33.9416 148.194 33.6388C148.132 33.3299 148.03 33.1168 147.888 32.9994C147.752 32.8758 147.573 32.814 147.35 32.814C147.128 32.814 146.949 32.8758 146.813 32.9994C146.677 33.1168 146.575 33.3299 146.507 33.6388C146.445 33.9416 146.414 34.3679 146.414 34.9177C146.414 35.4614 146.445 35.8846 146.507 36.1874C146.575 36.4901 146.677 36.7033 146.813 36.8268C146.949 36.9442 147.128 37.0029 147.35 37.0029Z" fill="black"/>
<path d="M152.048 37.2624C151.683 37.2624 151.356 37.1821 151.065 37.0214C150.775 36.8546 150.546 36.6013 150.38 36.2615C150.219 35.9155 150.139 35.4769 150.139 34.9455C150.139 34.4142 150.231 33.9725 150.417 33.6203C150.602 33.262 150.849 32.9932 151.158 32.814C151.467 32.6349 151.807 32.5453 152.178 32.5453C152.4 32.5453 152.613 32.5731 152.817 32.6287C153.021 32.6781 153.2 32.7554 153.354 32.8604V31.6556C153.354 31.5259 153.333 31.4332 153.29 31.3776C153.253 31.3158 153.172 31.2695 153.049 31.2386L152.863 31.2015V31.0254L154.476 30.627L154.596 30.7104L154.559 32.0171V36.4747C154.559 36.592 154.581 36.6909 154.624 36.7712C154.667 36.8454 154.745 36.8979 154.856 36.9288L154.958 36.9566V37.1326L153.419 37.2346L153.336 36.8454C153.169 36.9751 152.978 37.077 152.761 37.1512C152.545 37.2253 152.307 37.2624 152.048 37.2624ZM152.557 36.8361C152.823 36.8361 153.073 36.7496 153.308 36.5766V33.1291C153.08 32.987 152.832 32.916 152.567 32.916C152.264 32.916 152.005 33.0766 151.788 33.3979C151.572 33.713 151.464 34.2227 151.464 34.927C151.464 35.6313 151.566 36.1256 151.77 36.4098C151.974 36.694 152.236 36.8361 152.557 36.8361Z" fill="black"/>
<path d="M157.59 34.9826V34.5934H159.907V34.9826H157.59Z" fill="black"/>
<path d="M161.224 37.1326L161.131 37.04L164.134 32.1931H160.529V31.2386H164.579V31.841L162.391 37.1326H161.224Z" fill="black"/>
<path d="M167.093 37.2624C166.729 37.2624 166.386 37.1604 166.064 36.9566C165.743 36.7465 165.484 36.416 165.286 35.965C165.088 35.5139 164.989 34.9239 164.989 34.1949C164.989 33.4597 165.088 32.8666 165.286 32.4156C165.484 31.9645 165.743 31.634 166.064 31.4239C166.386 31.2139 166.729 31.1089 167.093 31.1089C167.458 31.1089 167.8 31.2139 168.122 31.4239C168.443 31.634 168.702 31.9645 168.9 32.4156C169.098 32.8666 169.197 33.4597 169.197 34.1949C169.197 34.9239 169.098 35.5139 168.9 35.965C168.702 36.416 168.443 36.7465 168.122 36.9566C167.8 37.1604 167.458 37.2624 167.093 37.2624ZM167.093 37.0029C167.254 37.0029 167.39 36.9627 167.501 36.8824C167.612 36.8021 167.702 36.6631 167.77 36.4654C167.844 36.2615 167.896 35.9773 167.927 35.6128C167.964 35.2421 167.983 34.7695 167.983 34.1949C167.983 33.6141 167.964 33.1415 167.927 32.777C167.896 32.4063 167.844 32.119 167.77 31.9151C167.702 31.7112 167.612 31.5691 167.501 31.4888C167.39 31.4085 167.254 31.3683 167.093 31.3683C166.939 31.3683 166.803 31.4085 166.685 31.4888C166.574 31.563 166.484 31.702 166.417 31.9058C166.349 32.1097 166.296 32.397 166.259 32.7677C166.228 33.1384 166.213 33.6141 166.213 34.1949C166.213 34.7695 166.228 35.2421 166.259 35.6128C166.296 35.9773 166.349 36.2615 166.417 36.4654C166.484 36.6693 166.574 36.8114 166.685 36.8917C166.803 36.9658 166.939 37.0029 167.093 37.0029Z" fill="black"/>
<path d="M171.505 37.3551L171.264 37.179L175.462 31.0347L175.703 31.2108L171.505 37.3551ZM171.319 31.1089C171.56 31.1089 171.783 31.1768 171.987 31.3127C172.197 31.4425 172.367 31.6495 172.496 31.9337C172.626 32.2117 172.691 32.5731 172.691 33.0179C172.691 33.4566 172.626 33.818 172.496 34.1022C172.367 34.3802 172.197 34.5872 171.987 34.7231C171.783 34.8529 171.56 34.9177 171.319 34.9177C171.078 34.9177 170.853 34.8529 170.643 34.7231C170.439 34.5872 170.272 34.3802 170.142 34.1022C170.013 33.818 169.948 33.4566 169.948 33.0179C169.948 32.5731 170.013 32.2117 170.142 31.9337C170.272 31.6495 170.439 31.4425 170.643 31.3127C170.853 31.1768 171.078 31.1089 171.319 31.1089ZM170.791 33.0179C170.791 33.4751 170.816 33.8273 170.865 34.0744C170.915 34.3154 170.98 34.4822 171.06 34.5748C171.14 34.6613 171.227 34.7046 171.319 34.7046C171.418 34.7046 171.505 34.6613 171.579 34.5748C171.659 34.4822 171.724 34.3154 171.773 34.0744C171.823 33.8273 171.848 33.4751 171.848 33.0179C171.848 32.5607 171.823 32.2117 171.773 31.9707C171.724 31.7236 171.659 31.5568 171.579 31.4703C171.505 31.3776 171.418 31.3313 171.319 31.3313C171.227 31.3313 171.14 31.3776 171.06 31.4703C170.98 31.5568 170.915 31.7205 170.865 31.9615C170.816 32.2024 170.791 32.5546 170.791 33.0179ZM175.545 33.4072C175.786 33.4072 176.009 33.4751 176.213 33.611C176.423 33.7408 176.593 33.9478 176.722 34.232C176.852 34.51 176.917 34.8714 176.917 35.3162C176.917 35.7549 176.852 36.1163 176.722 36.4005C176.593 36.6785 176.423 36.8855 176.213 37.0214C176.009 37.1512 175.786 37.216 175.545 37.216C175.304 37.216 175.079 37.1512 174.869 37.0214C174.665 36.8855 174.498 36.6785 174.368 36.4005C174.239 36.1163 174.174 35.7549 174.174 35.3162C174.174 34.8714 174.239 34.51 174.368 34.232C174.498 33.9478 174.665 33.7408 174.869 33.611C175.079 33.4751 175.304 33.4072 175.545 33.4072ZM175.017 35.3162C175.017 35.7734 175.042 36.1256 175.091 36.3727C175.141 36.6137 175.206 36.7805 175.286 36.8732C175.366 36.9596 175.453 37.0029 175.545 37.0029C175.644 37.0029 175.731 36.9596 175.805 36.8732C175.885 36.7805 175.95 36.6137 175.999 36.3727C176.049 36.1256 176.074 35.7734 176.074 35.3162C176.074 34.859 176.049 34.51 175.999 34.269C175.95 34.0219 175.885 33.8551 175.805 33.7686C175.731 33.6759 175.644 33.6296 175.545 33.6296C175.453 33.6296 175.366 33.6759 175.286 33.7686C175.206 33.8551 175.141 34.0188 175.091 34.2598C175.042 34.5007 175.017 34.8529 175.017 35.3162Z" fill="black"/>
<path d="M107.502 53.628V53.197L109.177 51.3899C109.413 51.1304 109.582 50.8941 109.684 50.6809C109.791 50.4678 109.844 50.25 109.844 50.0276C109.844 49.4576 109.513 49.1727 108.85 49.1727C108.354 49.1727 107.916 49.358 107.536 49.7287L107.321 49.2839C107.502 49.0985 107.731 48.9503 108.009 48.839C108.292 48.7232 108.588 48.6653 108.899 48.6653C109.39 48.6653 109.765 48.7811 110.025 49.0128C110.289 49.2399 110.421 49.5642 110.421 49.9859C110.421 50.2778 110.349 50.5651 110.205 50.8477C110.062 51.1258 109.842 51.4223 109.545 51.7374L108.231 53.1414H110.622V53.628H107.502Z" fill="#292929"/>
<path d="M113.129 53.6905C112.568 53.6905 112.142 53.475 111.85 53.0441C111.558 52.6132 111.412 51.9899 111.412 51.1744C111.412 50.3543 111.558 49.731 111.85 49.3047C112.142 48.8784 112.568 48.6653 113.129 48.6653C113.694 48.6653 114.12 48.8784 114.408 49.3047C114.7 49.7264 114.845 50.3473 114.845 51.1675C114.845 51.9876 114.697 52.6132 114.401 53.0441C114.109 53.475 113.685 53.6905 113.129 53.6905ZM113.129 53.197C113.518 53.197 113.805 53.0325 113.991 52.7035C114.181 52.3745 114.276 51.8625 114.276 51.1675C114.276 50.4724 114.183 49.965 113.998 49.6453C113.812 49.3209 113.523 49.1588 113.129 49.1588C112.739 49.1588 112.45 49.3209 112.26 49.6453C112.075 49.9697 111.982 50.4771 111.982 51.1675C111.982 51.8625 112.075 52.3745 112.26 52.7035C112.45 53.0325 112.739 53.197 113.129 53.197Z" fill="#292929"/>
<path d="M117.296 53.6905C116.736 53.6905 116.309 53.475 116.017 53.0441C115.725 52.6132 115.58 51.9899 115.58 51.1744C115.58 50.3543 115.725 49.731 116.017 49.3047C116.309 48.8784 116.736 48.6653 117.296 48.6653C117.862 48.6653 118.288 48.8784 118.575 49.3047C118.867 49.7264 119.013 50.3473 119.013 51.1675C119.013 51.9876 118.865 52.6132 118.568 53.0441C118.276 53.475 117.852 53.6905 117.296 53.6905ZM117.296 53.197C117.686 53.197 117.973 53.0325 118.158 52.7035C118.348 52.3745 118.443 51.8625 118.443 51.1675C118.443 50.4724 118.35 49.965 118.165 49.6453C117.98 49.3209 117.69 49.1588 117.296 49.1588C116.907 49.1588 116.617 49.3209 116.427 49.6453C116.242 49.9697 116.149 50.4771 116.149 51.1675C116.149 51.8625 116.242 52.3745 116.427 52.7035C116.617 53.0325 116.907 53.197 117.296 53.197Z" fill="#292929"/>
<path d="M122.888 53.6905C122.077 53.6905 121.671 53.2434 121.671 52.3491V50.25H122.234V52.3421C122.234 52.6433 122.295 52.8657 122.415 53.0094C122.54 53.153 122.735 53.2248 122.999 53.2248C123.286 53.2248 123.52 53.1298 123.701 52.9399C123.882 52.7452 123.972 52.4881 123.972 52.1683V50.25H124.535V53.628H123.986V53.058C123.879 53.2619 123.729 53.4194 123.534 53.5306C123.344 53.6372 123.129 53.6905 122.888 53.6905Z" fill="#292929"/>
<path d="M126.728 53.6905C126.464 53.6905 126.214 53.6534 125.977 53.5793C125.741 53.5052 125.547 53.4009 125.394 53.2665L125.574 52.8703C125.741 53.0047 125.924 53.1043 126.123 53.1692C126.327 53.2295 126.533 53.2596 126.742 53.2596C127.006 53.2596 127.205 53.2109 127.34 53.1136C127.474 53.0163 127.541 52.8842 127.541 52.7174C127.541 52.5877 127.497 52.4858 127.409 52.4116C127.321 52.3328 127.182 52.2726 126.992 52.2309L126.36 52.0919C125.785 51.9668 125.498 51.6702 125.498 51.2022C125.498 50.8964 125.618 50.6508 125.859 50.4655C126.105 50.2801 126.425 50.1874 126.818 50.1874C127.05 50.1874 127.27 50.2245 127.479 50.2987C127.692 50.3682 127.868 50.4724 128.007 50.6114L127.819 51.0076C127.685 50.8825 127.527 50.7875 127.347 50.7226C127.171 50.6531 126.995 50.6184 126.818 50.6184C126.559 50.6184 126.362 50.6693 126.228 50.7713C126.093 50.8732 126.026 51.0076 126.026 51.1744C126.026 51.4339 126.198 51.6007 126.54 51.6749L127.173 51.8069C127.469 51.8718 127.694 51.976 127.847 52.1197C128 52.2587 128.077 52.4487 128.077 52.6896C128.077 53.0001 127.954 53.2457 127.708 53.4264C127.463 53.6025 127.136 53.6905 126.728 53.6905Z" fill="#292929"/>
<path d="M130.457 53.6905C129.924 53.6905 129.502 53.5353 129.192 53.2248C128.881 52.9097 128.726 52.4834 128.726 51.9459C128.726 51.5984 128.796 51.2926 128.935 51.0285C129.074 50.7597 129.264 50.5535 129.504 50.4099C129.75 50.2616 130.033 50.1874 130.352 50.1874C130.811 50.1874 131.17 50.3357 131.43 50.6323C131.689 50.9242 131.819 51.3273 131.819 51.8417V52.0571H129.275C129.294 52.4417 129.405 52.736 129.609 52.9399C129.813 53.1391 130.095 53.2387 130.457 53.2387C130.661 53.2387 130.855 53.2086 131.041 53.1484C131.226 53.0835 131.402 52.9792 131.569 52.8356L131.763 53.2318C131.61 53.3754 131.416 53.4889 131.18 53.5724C130.943 53.6511 130.702 53.6905 130.457 53.6905ZM130.366 50.6045C130.047 50.6045 129.794 50.7041 129.609 50.9034C129.423 51.1026 129.314 51.3644 129.282 51.6888H131.332C131.319 51.3459 131.228 51.0794 131.061 50.8894C130.899 50.6995 130.668 50.6045 130.366 50.6045Z" fill="#292929"/>
<path d="M132.634 53.628V50.25H133.183V50.8547C133.364 50.4469 133.734 50.2222 134.295 50.1805L134.497 50.1596L134.538 50.6462L134.184 50.6879C133.864 50.7157 133.621 50.8176 133.454 50.9937C133.287 51.1652 133.204 51.4015 133.204 51.7027V53.628H132.634Z" fill="#292929"/>
<path d="M136.231 53.6905C135.967 53.6905 135.716 53.6534 135.48 53.5793C135.244 53.5052 135.049 53.4009 134.896 53.2665L135.077 52.8703C135.244 53.0047 135.427 53.1043 135.626 53.1692C135.83 53.2295 136.036 53.2596 136.245 53.2596C136.509 53.2596 136.708 53.2109 136.842 53.1136C136.977 53.0163 137.044 52.8842 137.044 52.7174C137.044 52.5877 137 52.4858 136.912 52.4116C136.824 52.3328 136.685 52.2726 136.495 52.2309L135.862 52.0919C135.288 51.9668 135.001 51.6702 135.001 51.2022C135.001 50.8964 135.121 50.6508 135.362 50.4655C135.608 50.2801 135.927 50.1874 136.321 50.1874C136.553 50.1874 136.773 50.2245 136.981 50.2987C137.195 50.3682 137.371 50.4724 137.51 50.6114L137.322 51.0076C137.188 50.8825 137.03 50.7875 136.849 50.7226C136.673 50.6531 136.497 50.6184 136.321 50.6184C136.062 50.6184 135.865 50.6693 135.73 50.7713C135.596 50.8732 135.529 51.0076 135.529 51.1744C135.529 51.4339 135.7 51.6007 136.043 51.6749L136.676 51.8069C136.972 51.8718 137.197 51.976 137.35 52.1197C137.503 52.2587 137.579 52.4487 137.579 52.6896C137.579 53.0001 137.456 53.2457 137.211 53.4264C136.965 53.6025 136.639 53.6905 136.231 53.6905Z" fill="#292929"/>
<path d="M140.222 54.879V50.25H140.771V50.8547C140.873 50.6462 141.024 50.484 141.223 50.3682C141.427 50.2477 141.663 50.1874 141.932 50.1874C142.233 50.1874 142.495 50.2593 142.718 50.4029C142.945 50.5419 143.118 50.7435 143.239 51.0076C143.364 51.2671 143.427 51.5776 143.427 51.939C143.427 52.2958 143.364 52.6062 143.239 52.8703C143.118 53.1298 142.945 53.3314 142.718 53.475C142.495 53.6187 142.233 53.6905 141.932 53.6905C141.673 53.6905 141.441 53.6326 141.237 53.5167C141.033 53.4009 140.883 53.241 140.785 53.0372V54.879H140.222ZM141.814 53.2387C142.129 53.2387 142.382 53.1275 142.572 52.9051C142.762 52.6781 142.857 52.356 142.857 51.939C142.857 51.5173 142.762 51.1953 142.572 50.9729C142.382 50.7504 142.129 50.6392 141.814 50.6392C141.499 50.6392 141.246 50.7504 141.056 50.9729C140.866 51.1953 140.771 51.5173 140.771 51.939C140.771 52.356 140.866 52.6781 141.056 52.9051C141.246 53.1275 141.499 53.2387 141.814 53.2387Z" fill="#292929"/>
<path d="M144.205 49.409V48.7765H144.9V49.409H144.205ZM144.275 53.628V50.25H144.838V53.628H144.275Z" fill="#292929"/>
<path d="M147.322 53.6905C146.984 53.6905 146.692 53.6187 146.446 53.475C146.2 53.3268 146.01 53.1206 145.876 52.8564C145.746 52.5877 145.681 52.2749 145.681 51.9181C145.681 51.3806 145.827 50.959 146.119 50.6531C146.411 50.3427 146.812 50.1874 147.322 50.1874C147.53 50.1874 147.737 50.2245 147.94 50.2987C148.144 50.3728 148.313 50.4771 148.448 50.6114L148.253 51.0215C148.119 50.8918 147.971 50.7968 147.808 50.7365C147.651 50.6763 147.5 50.6462 147.357 50.6462C147.004 50.6462 146.733 50.7574 146.543 50.9798C146.353 51.1976 146.258 51.5127 146.258 51.9251C146.258 52.3282 146.353 52.6479 146.543 52.8842C146.733 53.1159 147.004 53.2318 147.357 53.2318C147.5 53.2318 147.651 53.2017 147.808 53.1414C147.971 53.0812 148.119 52.9839 148.253 52.8495L148.448 53.2596C148.313 53.394 148.142 53.5005 147.933 53.5793C147.73 53.6534 147.526 53.6905 147.322 53.6905Z" fill="#292929"/>
<path d="M149.107 53.628V48.7278H149.67V51.7513H149.684L151.248 50.25H151.964L150.268 51.8764L152.11 53.628H151.394L149.684 52.0432H149.67V53.628H149.107Z" fill="#292929"/>
<path d="M154.017 53.6905C153.484 53.6905 153.062 53.5353 152.752 53.2248C152.441 52.9097 152.286 52.4834 152.286 51.9459C152.286 51.5984 152.355 51.2926 152.494 51.0285C152.633 50.7597 152.823 50.5535 153.064 50.4099C153.31 50.2616 153.593 50.1874 153.912 50.1874C154.371 50.1874 154.73 50.3357 154.99 50.6323C155.249 50.9242 155.379 51.3273 155.379 51.8417V52.0571H152.835C152.853 52.4417 152.965 52.736 153.169 52.9399C153.372 53.1391 153.655 53.2387 154.017 53.2387C154.22 53.2387 154.415 53.2086 154.6 53.1484C154.786 53.0835 154.962 52.9792 155.129 52.8356L155.323 53.2318C155.17 53.3754 154.976 53.4889 154.739 53.5724C154.503 53.6511 154.262 53.6905 154.017 53.6905ZM153.926 50.6045C153.606 50.6045 153.354 50.7041 153.169 50.9034C152.983 51.1026 152.874 51.3644 152.842 51.6888H154.892C154.878 51.3459 154.788 51.0794 154.621 50.8894C154.459 50.6995 154.227 50.6045 153.926 50.6045Z" fill="#292929"/>
<path d="M157.479 53.6905C157.178 53.6905 156.914 53.6187 156.687 53.475C156.465 53.3314 156.291 53.1298 156.166 52.8703C156.045 52.6062 155.985 52.2958 155.985 51.939C155.985 51.5776 156.045 51.2671 156.166 51.0076C156.291 50.7435 156.465 50.5419 156.687 50.4029C156.914 50.2593 157.178 50.1874 157.479 50.1874C157.744 50.1874 157.975 50.2454 158.174 50.3612C158.378 50.4771 158.529 50.6369 158.626 50.8408V48.7278H159.189V53.628H158.64V53.0094C158.543 53.2225 158.392 53.3893 158.188 53.5098C157.985 53.6303 157.748 53.6905 157.479 53.6905ZM157.598 53.2387C157.913 53.2387 158.165 53.1275 158.355 52.9051C158.545 52.6781 158.64 52.356 158.64 51.939C158.64 51.5173 158.545 51.1953 158.355 50.9729C158.165 50.7504 157.913 50.6392 157.598 50.6392C157.278 50.6392 157.023 50.7504 156.833 50.9729C156.648 51.1953 156.555 51.5173 156.555 51.939C156.555 52.356 156.648 52.6781 156.833 52.9051C157.023 53.1275 157.278 53.2387 157.598 53.2387Z" fill="#292929"/>
<path d="M107.314 59.4548V58.9613C107.314 58.7713 107.344 58.5953 107.404 58.4331C107.469 58.2709 107.578 58.111 107.731 57.9535L108.002 58.1551C107.9 58.2663 107.826 58.3705 107.78 58.4678C107.733 58.5605 107.705 58.6532 107.696 58.7459H108.023V59.4548H107.314ZM108.468 59.4548V58.9613C108.468 58.7713 108.498 58.5953 108.558 58.4331C108.623 58.2709 108.732 58.111 108.885 57.9535L109.156 58.1551C109.054 58.2663 108.98 58.3705 108.933 58.4678C108.887 58.5605 108.859 58.6532 108.85 58.7459H109.177V59.4548H108.468Z" fill="#292929"/>
<path d="M110.216 62.8953V57.9952H112.155C112.683 57.9952 113.087 58.1226 113.365 58.3775C113.647 58.6323 113.789 58.9961 113.789 59.4687C113.789 59.9367 113.647 60.3005 113.365 60.5599C113.087 60.8148 112.683 60.9422 112.155 60.9422H110.786V62.8953H110.216ZM110.786 60.4626H112.086C112.846 60.4626 113.226 60.1313 113.226 59.4687C113.226 58.8015 112.846 58.4678 112.086 58.4678H110.786V60.4626Z" fill="#292929"/>
<path d="M115.432 62.9579C115.2 62.9579 114.992 62.9138 114.806 62.8258C114.625 62.7331 114.482 62.608 114.375 62.4505C114.269 62.2929 114.215 62.1169 114.215 61.9222C114.215 61.6767 114.278 61.482 114.403 61.3384C114.533 61.1948 114.744 61.0928 115.036 61.0326C115.332 60.9677 115.735 60.9353 116.245 60.9353H116.467V60.7198C116.467 60.4325 116.407 60.2263 116.287 60.1012C116.171 59.9715 115.983 59.9066 115.724 59.9066C115.52 59.9066 115.323 59.9367 115.133 59.9969C114.943 60.0526 114.748 60.1452 114.549 60.275L114.354 59.8649C114.53 59.7398 114.744 59.6402 114.994 59.566C115.249 59.4919 115.492 59.4548 115.724 59.4548C116.159 59.4548 116.481 59.5614 116.69 59.7745C116.903 59.9877 117.009 60.319 117.009 60.7685V62.8953H116.481V62.3115C116.393 62.5107 116.257 62.6683 116.071 62.7841C115.89 62.8999 115.677 62.9579 115.432 62.9579ZM115.522 62.5339C115.8 62.5339 116.027 62.4389 116.203 62.2489C116.379 62.0543 116.467 61.8087 116.467 61.5122V61.3036H116.252C115.877 61.3036 115.58 61.3222 115.362 61.3592C115.149 61.3917 114.998 61.4519 114.91 61.54C114.827 61.6234 114.785 61.7392 114.785 61.8875C114.785 62.0775 114.85 62.2327 114.98 62.3532C115.114 62.4736 115.295 62.5339 115.522 62.5339Z" fill="#292929"/>
<path d="M118.054 62.8953V59.5174H118.603V60.1221C118.784 59.7143 119.154 59.4896 119.715 59.4479L119.917 59.427L119.958 59.9135L119.604 59.9552C119.284 59.983 119.041 60.085 118.874 60.2611C118.707 60.4325 118.624 60.6688 118.624 60.97V62.8953H118.054Z" fill="#292929"/>
<path d="M122.026 62.9579C121.494 62.9579 121.072 62.8026 120.761 62.4922C120.451 62.1771 120.296 61.7508 120.296 61.2133C120.296 60.8658 120.365 60.5599 120.504 60.2958C120.643 60.0271 120.833 59.8209 121.074 59.6772C121.32 59.5289 121.602 59.4548 121.922 59.4548C122.381 59.4548 122.74 59.6031 123 59.8996C123.259 60.1916 123.389 60.5947 123.389 61.109V61.3245H120.845C120.863 61.7091 120.975 62.0033 121.179 62.2072C121.382 62.4065 121.665 62.5061 122.026 62.5061C122.23 62.5061 122.425 62.476 122.61 62.4157C122.796 62.3509 122.972 62.2466 123.139 62.103L123.333 62.4991C123.18 62.6428 122.986 62.7563 122.749 62.8397C122.513 62.9185 122.272 62.9579 122.026 62.9579ZM121.936 59.8718C121.616 59.8718 121.364 59.9715 121.179 60.1707C120.993 60.37 120.884 60.6318 120.852 60.9561H122.902C122.888 60.6132 122.798 60.3468 122.631 60.1568C122.469 59.9668 122.237 59.8718 121.936 59.8718Z" fill="#292929"/>
<path d="M124.204 62.8953V59.5174H124.753V60.0943C124.864 59.8811 125.021 59.7212 125.225 59.6147C125.429 59.5081 125.659 59.4548 125.913 59.4548C126.715 59.4548 127.116 59.8996 127.116 60.7893V62.8953H126.553V60.8241C126.553 60.509 126.49 60.2796 126.365 60.136C126.245 59.9877 126.05 59.9135 125.781 59.9135C125.471 59.9135 125.223 60.0108 125.038 60.2055C124.857 60.3954 124.767 60.6503 124.767 60.97V62.8953H124.204Z" fill="#292929"/>
<path d="M129.509 62.9579C129.111 62.9579 128.812 62.8536 128.613 62.6451C128.413 62.4319 128.314 62.1261 128.314 61.7276V59.9552H127.654V59.5174H128.314V58.4817H128.877V59.5174H129.947V59.9552H128.877V61.672C128.877 61.9361 128.932 62.1377 129.044 62.2767C129.155 62.4111 129.336 62.4783 129.586 62.4783C129.66 62.4783 129.734 62.469 129.808 62.4505C129.882 62.4319 129.949 62.4134 130.01 62.3949L130.107 62.8258C130.047 62.8582 129.959 62.8884 129.843 62.9162C129.727 62.944 129.616 62.9579 129.509 62.9579Z" fill="#292929"/>
<path d="M130.584 62.8953V57.9952H131.147V60.0734C131.258 59.8695 131.413 59.7166 131.613 59.6147C131.816 59.5081 132.044 59.4548 132.294 59.4548C133.095 59.4548 133.496 59.8996 133.496 60.7893V62.8953H132.933V60.8241C132.933 60.509 132.871 60.2796 132.746 60.136C132.625 59.9877 132.43 59.9135 132.162 59.9135C131.851 59.9135 131.603 60.0108 131.418 60.2055C131.237 60.3954 131.147 60.6503 131.147 60.97V62.8953H130.584Z" fill="#292929"/>
<path d="M135.938 62.9579C135.609 62.9579 135.324 62.886 135.083 62.7424C134.842 62.5988 134.655 62.3972 134.52 62.1377C134.391 61.8736 134.326 61.5631 134.326 61.2063C134.326 60.8495 134.391 60.5414 134.52 60.2819C134.655 60.0178 134.842 59.8139 135.083 59.6703C135.324 59.5266 135.609 59.4548 135.938 59.4548C136.263 59.4548 136.545 59.5266 136.786 59.6703C137.032 59.8139 137.22 60.0178 137.349 60.2819C137.484 60.5414 137.551 60.8495 137.551 61.2063C137.551 61.5631 137.484 61.8736 137.349 62.1377C137.22 62.3972 137.032 62.5988 136.786 62.7424C136.545 62.886 136.263 62.9579 135.938 62.9579ZM135.938 62.5061C136.253 62.5061 136.506 62.3949 136.696 62.1725C136.886 61.9454 136.981 61.6234 136.981 61.2063C136.981 60.7847 136.886 60.4626 136.696 60.2402C136.506 60.0178 136.253 59.9066 135.938 59.9066C135.619 59.9066 135.364 60.0178 135.174 60.2402C134.988 60.4626 134.896 60.7847 134.896 61.2063C134.896 61.6234 134.988 61.9454 135.174 62.1725C135.364 62.3949 135.619 62.5061 135.938 62.5061Z" fill="#292929"/>
<path d="M139.8 62.9579C139.471 62.9579 139.187 62.886 138.946 62.7424C138.705 62.5988 138.517 62.3972 138.383 62.1377C138.253 61.8736 138.188 61.5631 138.188 61.2063C138.188 60.8495 138.253 60.5414 138.383 60.2819C138.517 60.0178 138.705 59.8139 138.946 59.6703C139.187 59.5266 139.471 59.4548 139.8 59.4548C140.125 59.4548 140.407 59.5266 140.648 59.6703C140.894 59.8139 141.082 60.0178 141.211 60.2819C141.346 60.5414 141.413 60.8495 141.413 61.2063C141.413 61.5631 141.346 61.8736 141.211 62.1377C141.082 62.3972 140.894 62.5988 140.648 62.7424C140.407 62.886 140.125 62.9579 139.8 62.9579ZM139.8 62.5061C140.116 62.5061 140.368 62.3949 140.558 62.1725C140.748 61.9454 140.843 61.6234 140.843 61.2063C140.843 60.7847 140.748 60.4626 140.558 60.2402C140.368 60.0178 140.116 59.9066 139.8 59.9066C139.481 59.9066 139.226 60.0178 139.036 60.2402C138.851 60.4626 138.758 60.7847 138.758 61.2063C138.758 61.6234 138.851 61.9454 139.036 62.1725C139.226 62.3949 139.481 62.5061 139.8 62.5061Z" fill="#292929"/>
<path d="M143.544 62.9579C143.243 62.9579 142.979 62.886 142.752 62.7424C142.53 62.5988 142.356 62.3972 142.231 62.1377C142.11 61.8736 142.05 61.5631 142.05 61.2063C142.05 60.8449 142.11 60.5345 142.231 60.275C142.356 60.0108 142.53 59.8093 142.752 59.6703C142.979 59.5266 143.243 59.4548 143.544 59.4548C143.809 59.4548 144.04 59.5127 144.24 59.6286C144.443 59.7444 144.594 59.9043 144.691 60.1082V57.9952H145.254V62.8953H144.705V62.2767C144.608 62.4899 144.457 62.6567 144.253 62.7772C144.05 62.8976 143.813 62.9579 143.544 62.9579ZM143.663 62.5061C143.978 62.5061 144.23 62.3949 144.42 62.1725C144.61 61.9454 144.705 61.6234 144.705 61.2063C144.705 60.7847 144.61 60.4626 144.42 60.2402C144.23 60.0178 143.978 59.9066 143.663 59.9066C143.343 59.9066 143.088 60.0178 142.898 60.2402C142.713 60.4626 142.62 60.7847 142.62 61.2063C142.62 61.6234 142.713 61.9454 142.898 62.1725C143.088 62.3949 143.343 62.5061 143.663 62.5061Z" fill="#292929"/>
<path d="M149.159 62.9579C148.928 62.9579 148.719 62.9138 148.534 62.8258C148.353 62.7331 148.209 62.608 148.103 62.4505C147.996 62.2929 147.943 62.1169 147.943 61.9222C147.943 61.6767 148.006 61.482 148.131 61.3384C148.26 61.1948 148.471 61.0928 148.763 61.0326C149.06 60.9677 149.463 60.9353 149.973 60.9353H150.195V60.7198C150.195 60.4325 150.135 60.2263 150.014 60.1012C149.898 59.9715 149.711 59.9066 149.451 59.9066C149.247 59.9066 149.051 59.9367 148.861 59.9969C148.671 60.0526 148.476 60.1452 148.277 60.275L148.082 59.8649C148.258 59.7398 148.471 59.6402 148.722 59.566C148.976 59.4919 149.22 59.4548 149.451 59.4548C149.887 59.4548 150.209 59.5614 150.417 59.7745C150.631 59.9877 150.737 60.319 150.737 60.7685V62.8953H150.209V62.3115C150.121 62.5107 149.984 62.6683 149.799 62.7841C149.618 62.8999 149.405 62.9579 149.159 62.9579ZM149.25 62.5339C149.528 62.5339 149.755 62.4389 149.931 62.2489C150.107 62.0543 150.195 61.8087 150.195 61.5122V61.3036H149.98C149.604 61.3036 149.308 61.3222 149.09 61.3592C148.877 61.3917 148.726 61.4519 148.638 61.54C148.555 61.6234 148.513 61.7392 148.513 61.8875C148.513 62.0775 148.578 62.2327 148.708 62.3532C148.842 62.4736 149.023 62.5339 149.25 62.5339Z" fill="#292929"/>
<path d="M152.922 62.9579C152.657 62.9579 152.407 62.9208 152.171 62.8467C151.935 62.7725 151.74 62.6683 151.587 62.5339L151.768 62.1377C151.935 62.2721 152.118 62.3717 152.317 62.4366C152.521 62.4968 152.727 62.5269 152.935 62.5269C153.2 62.5269 153.399 62.4783 153.533 62.381C153.668 62.2837 153.735 62.1516 153.735 61.9848C153.735 61.8551 153.691 61.7531 153.603 61.679C153.515 61.6002 153.376 61.54 153.186 61.4983L152.553 61.3592C151.979 61.2341 151.691 60.9376 151.691 60.4696C151.691 60.1638 151.812 59.9182 152.053 59.7328C152.298 59.5475 152.618 59.4548 153.012 59.4548C153.244 59.4548 153.464 59.4919 153.672 59.566C153.885 59.6355 154.061 59.7398 154.2 59.8788L154.013 60.275C153.878 60.1499 153.721 60.0549 153.54 59.99C153.364 59.9205 153.188 59.8857 153.012 59.8857C152.752 59.8857 152.555 59.9367 152.421 60.0387C152.287 60.1406 152.22 60.275 152.22 60.4418C152.22 60.7013 152.391 60.8681 152.734 60.9422L153.366 61.0743C153.663 61.1391 153.888 61.2434 154.041 61.3871C154.193 61.5261 154.27 61.716 154.27 61.957C154.27 62.2674 154.147 62.513 153.902 62.6937C153.656 62.8698 153.329 62.9579 152.922 62.9579Z" fill="#292929"/>
<path d="M157.977 62.9579C157.745 62.9579 157.536 62.9138 157.351 62.8258C157.17 62.7331 157.027 62.608 156.92 62.4505C156.813 62.2929 156.76 62.1169 156.76 61.9222C156.76 61.6767 156.823 61.482 156.948 61.3384C157.078 61.1948 157.288 61.0928 157.58 61.0326C157.877 60.9677 158.28 60.9353 158.79 60.9353H159.012V60.7198C159.012 60.4325 158.952 60.2263 158.831 60.1012C158.716 59.9715 158.528 59.9066 158.268 59.9066C158.065 59.9066 157.868 59.9367 157.678 59.9969C157.488 60.0526 157.293 60.1452 157.094 60.275L156.899 59.8649C157.075 59.7398 157.288 59.6402 157.539 59.566C157.793 59.4919 158.037 59.4548 158.268 59.4548C158.704 59.4548 159.026 59.5614 159.235 59.7745C159.448 59.9877 159.554 60.319 159.554 60.7685V62.8953H159.026V62.3115C158.938 62.5107 158.801 62.6683 158.616 62.7841C158.435 62.8999 158.222 62.9579 157.977 62.9579ZM158.067 62.5339C158.345 62.5339 158.572 62.4389 158.748 62.2489C158.924 62.0543 159.012 61.8087 159.012 61.5122V61.3036H158.797C158.421 61.3036 158.125 61.3222 157.907 61.3592C157.694 61.3917 157.543 61.4519 157.455 61.54C157.372 61.6234 157.33 61.7392 157.33 61.8875C157.33 62.0775 157.395 62.2327 157.525 62.3532C157.659 62.4736 157.84 62.5339 158.067 62.5339Z" fill="#292929"/>
<path d="M163.739 62.9579C163.341 62.9579 163.042 62.8536 162.843 62.6451C162.643 62.4319 162.544 62.1261 162.544 61.7276V59.9552H161.883V59.5174H162.544V58.4817H163.107V59.5174H164.177V59.9552H163.107V61.672C163.107 61.9361 163.162 62.1377 163.274 62.2767C163.385 62.4111 163.565 62.4783 163.816 62.4783C163.89 62.4783 163.964 62.469 164.038 62.4505C164.112 62.4319 164.179 62.4134 164.24 62.3949L164.337 62.8258C164.277 62.8582 164.189 62.8884 164.073 62.9162C163.957 62.944 163.846 62.9579 163.739 62.9579Z" fill="#292929"/>
<path d="M166.184 62.9579C165.855 62.9579 165.57 62.886 165.329 62.7424C165.088 62.5988 164.9 62.3972 164.766 62.1377C164.636 61.8736 164.571 61.5631 164.571 61.2063C164.571 60.8495 164.636 60.5414 164.766 60.2819C164.9 60.0178 165.088 59.8139 165.329 59.6703C165.57 59.5266 165.855 59.4548 166.184 59.4548C166.508 59.4548 166.791 59.5266 167.032 59.6703C167.277 59.8139 167.465 60.0178 167.595 60.2819C167.729 60.5414 167.796 60.8495 167.796 61.2063C167.796 61.5631 167.729 61.8736 167.595 62.1377C167.465 62.3972 167.277 62.5988 167.032 62.7424C166.791 62.886 166.508 62.9579 166.184 62.9579ZM166.184 62.5061C166.499 62.5061 166.752 62.3949 166.942 62.1725C167.132 61.9454 167.227 61.6234 167.227 61.2063C167.227 60.7847 167.132 60.4626 166.942 60.2402C166.752 60.0178 166.499 59.9066 166.184 59.9066C165.864 59.9066 165.609 60.0178 165.419 60.2402C165.234 60.4626 165.141 60.7847 165.141 61.2063C165.141 61.6234 165.234 61.9454 165.419 62.1725C165.609 62.3949 165.864 62.5061 166.184 62.5061Z" fill="#292929"/>
<path d="M168.642 64.1464V59.5174H169.191V60.1221C169.293 59.9135 169.444 59.7514 169.643 59.6355C169.847 59.515 170.083 59.4548 170.352 59.4548C170.653 59.4548 170.915 59.5266 171.137 59.6703C171.364 59.8093 171.538 60.0108 171.659 60.275C171.784 60.5345 171.846 60.8449 171.846 61.2063C171.846 61.5631 171.784 61.8736 171.659 62.1377C171.538 62.3972 171.364 62.5988 171.137 62.7424C170.915 62.886 170.653 62.9579 170.352 62.9579C170.092 62.9579 169.861 62.8999 169.657 62.7841C169.453 62.6683 169.302 62.5084 169.205 62.3045V64.1464H168.642ZM170.234 62.5061C170.549 62.5061 170.801 62.3949 170.991 62.1725C171.181 61.9454 171.276 61.6234 171.276 61.2063C171.276 60.7847 171.181 60.4626 170.991 60.2402C170.801 60.0178 170.549 59.9066 170.234 59.9066C169.919 59.9066 169.666 60.0178 169.476 60.2402C169.286 60.4626 169.191 60.7847 169.191 61.2063C169.191 61.6234 169.286 61.9454 169.476 62.1725C169.666 62.3949 169.919 62.5061 170.234 62.5061Z" fill="#292929"/>
<path d="M172.625 58.6763V58.0439H173.32V58.6763H172.625ZM172.694 62.8953V59.5174H173.257V62.8953H172.694Z" fill="#292929"/>
<path d="M175.742 62.9579C175.403 62.9579 175.111 62.886 174.866 62.7424C174.62 62.5941 174.43 62.3879 174.296 62.1238C174.166 61.8551 174.101 61.5423 174.101 61.1855C174.101 60.648 174.247 60.2263 174.539 59.9205C174.831 59.61 175.232 59.4548 175.742 59.4548C175.95 59.4548 176.156 59.4919 176.36 59.566C176.564 59.6402 176.733 59.7444 176.868 59.8788L176.673 60.2889C176.539 60.1591 176.39 60.0641 176.228 60.0039C176.071 59.9437 175.92 59.9135 175.776 59.9135C175.424 59.9135 175.153 60.0247 174.963 60.2472C174.773 60.4649 174.678 60.78 174.678 61.1924C174.678 61.5956 174.773 61.9153 174.963 62.1516C175.153 62.3833 175.424 62.4991 175.776 62.4991C175.92 62.4991 176.071 62.469 176.228 62.4088C176.39 62.3485 176.539 62.2512 176.673 62.1169L176.868 62.5269C176.733 62.6613 176.562 62.7679 176.353 62.8467C176.149 62.9208 175.945 62.9579 175.742 62.9579Z" fill="#292929"/>
<path d="M180.716 62.9579C180.387 62.9579 180.102 62.886 179.861 62.7424C179.62 62.5988 179.433 62.3972 179.298 62.1377C179.169 61.8736 179.104 61.5631 179.104 61.2063C179.104 60.8495 179.169 60.5414 179.298 60.2819C179.433 60.0178 179.62 59.8139 179.861 59.6703C180.102 59.5266 180.387 59.4548 180.716 59.4548C181.041 59.4548 181.323 59.5266 181.564 59.6703C181.81 59.8139 181.997 60.0178 182.127 60.2819C182.262 60.5414 182.329 60.8495 182.329 61.2063C182.329 61.5631 182.262 61.8736 182.127 62.1377C181.997 62.3972 181.81 62.5988 181.564 62.7424C181.323 62.886 181.041 62.9579 180.716 62.9579ZM180.716 62.5061C181.031 62.5061 181.284 62.3949 181.474 62.1725C181.664 61.9454 181.759 61.6234 181.759 61.2063C181.759 60.7847 181.664 60.4626 181.474 60.2402C181.284 60.0178 181.031 59.9066 180.716 59.9066C180.396 59.9066 180.142 60.0178 179.952 60.2402C179.766 60.4626 179.674 60.7847 179.674 61.2063C179.674 61.6234 179.766 61.9454 179.952 62.1725C180.142 62.3949 180.396 62.5061 180.716 62.5061Z" fill="#292929"/>
<path d="M183.321 62.8953V59.9552H182.654V59.5174H183.321V59.3992C183.321 58.9497 183.432 58.6092 183.655 58.3775C183.882 58.1458 184.229 58.016 184.697 57.9882L184.968 57.9743L185.017 58.4053L184.697 58.4261C184.41 58.4493 184.202 58.535 184.072 58.6833C183.947 58.8316 183.884 59.047 183.884 59.3297V59.5174H184.857V59.9552H183.884V62.8953H183.321Z" fill="#292929"/>
<path d="M107.335 67.9437V67.3112H108.03V67.9437H107.335ZM107.404 72.1627V68.7847H107.967V72.1627H107.404Z" fill="#292929"/>
<path d="M109.02 72.1627V68.7847H109.569V69.3616C109.68 69.1485 109.837 68.9886 110.041 68.882C110.245 68.7755 110.475 68.7222 110.729 68.7222C111.531 68.7222 111.932 69.167 111.932 70.0567V72.1627H111.369V70.0914C111.369 69.7763 111.306 69.547 111.181 69.4033C111.061 69.255 110.866 69.1809 110.597 69.1809C110.287 69.1809 110.039 69.2782 109.854 69.4728C109.673 69.6628 109.583 69.9177 109.583 70.2374V72.1627H109.02Z" fill="#292929"/>
<path d="M114.325 72.2252C113.927 72.2252 113.628 72.121 113.429 71.9125C113.23 71.6993 113.13 71.3935 113.13 70.995V69.2226H112.47V68.7847H113.13V67.7491H113.693V68.7847H114.763V69.2226H113.693V70.9394C113.693 71.2035 113.749 71.4051 113.86 71.5441C113.971 71.6785 114.152 71.7456 114.402 71.7456C114.476 71.7456 114.55 71.7364 114.624 71.7178C114.698 71.6993 114.766 71.6808 114.826 71.6622L114.923 72.0932C114.863 72.1256 114.775 72.1557 114.659 72.1835C114.543 72.2113 114.432 72.2252 114.325 72.2252Z" fill="#292929"/>
<path d="M116.888 72.2252C116.355 72.2252 115.934 72.07 115.623 71.7595C115.313 71.4445 115.158 71.0182 115.158 70.4806C115.158 70.1331 115.227 69.8273 115.366 69.5632C115.505 69.2944 115.695 69.0882 115.936 68.9446C116.182 68.7963 116.464 68.7222 116.784 68.7222C117.243 68.7222 117.602 68.8704 117.861 69.167C118.121 69.4589 118.251 69.8621 118.251 70.3764V70.5919H115.707C115.725 70.9764 115.836 71.2707 116.04 71.4746C116.244 71.6738 116.527 71.7734 116.888 71.7734C117.092 71.7734 117.287 71.7433 117.472 71.6831C117.657 71.6182 117.834 71.514 118 71.3703L118.195 71.7665C118.042 71.9101 117.847 72.0237 117.611 72.1071C117.375 72.1858 117.134 72.2252 116.888 72.2252ZM116.798 69.1392C116.478 69.1392 116.226 69.2388 116.04 69.4381C115.855 69.6373 115.746 69.8991 115.714 70.2235H117.764C117.75 69.8806 117.66 69.6141 117.493 69.4242C117.331 69.2342 117.099 69.1392 116.798 69.1392Z" fill="#292929"/>
<path d="M119.065 72.1627V68.7847H119.614V69.3894C119.795 68.9816 120.166 68.7569 120.726 68.7152L120.928 68.6944L120.97 69.1809L120.615 69.2226C120.296 69.2504 120.052 69.3523 119.885 69.5284C119.719 69.6999 119.635 69.9362 119.635 70.2374V72.1627H119.065Z" fill="#292929"/>
<path d="M123.038 72.2252C122.505 72.2252 122.083 72.07 121.773 71.7595C121.462 71.4445 121.307 71.0182 121.307 70.4806C121.307 70.1331 121.377 69.8273 121.516 69.5632C121.655 69.2944 121.845 69.0882 122.086 68.9446C122.331 68.7963 122.614 68.7222 122.934 68.7222C123.392 68.7222 123.751 68.8704 124.011 69.167C124.27 69.4589 124.4 69.8621 124.4 70.3764V70.5919H121.856C121.875 70.9764 121.986 71.2707 122.19 71.4746C122.394 71.6738 122.676 71.7734 123.038 71.7734C123.242 71.7734 123.436 71.7433 123.622 71.6831C123.807 71.6182 123.983 71.514 124.15 71.3703L124.345 71.7665C124.192 71.9101 123.997 72.0237 123.761 72.1071C123.524 72.1858 123.283 72.2252 123.038 72.2252ZM122.947 69.1392C122.628 69.1392 122.375 69.2388 122.19 69.4381C122.005 69.6373 121.896 69.8991 121.863 70.2235H123.914C123.9 69.8806 123.809 69.6141 123.643 69.4242C123.48 69.2342 123.249 69.1392 122.947 69.1392Z" fill="#292929"/>
<path d="M126.355 72.2252C126.091 72.2252 125.84 72.1882 125.604 72.114C125.368 72.0399 125.173 71.9356 125.02 71.8012L125.201 71.4051C125.368 71.5394 125.551 71.6391 125.75 71.7039C125.954 71.7642 126.16 71.7943 126.369 71.7943C126.633 71.7943 126.832 71.7456 126.966 71.6483C127.101 71.551 127.168 71.419 127.168 71.2522C127.168 71.1224 127.124 71.0205 127.036 70.9463C126.948 70.8676 126.809 70.8073 126.619 70.7656L125.986 70.6266C125.412 70.5015 125.125 70.2049 125.125 69.7369C125.125 69.4311 125.245 69.1855 125.486 69.0002C125.732 68.8148 126.051 68.7222 126.445 68.7222C126.677 68.7222 126.897 68.7592 127.105 68.8334C127.319 68.9029 127.495 69.0071 127.634 69.1461L127.446 69.5423C127.312 69.4172 127.154 69.3222 126.973 69.2574C126.797 69.1879 126.621 69.1531 126.445 69.1531C126.186 69.1531 125.989 69.2041 125.854 69.306C125.72 69.4079 125.653 69.5423 125.653 69.7091C125.653 69.9686 125.824 70.1354 126.167 70.2096L126.8 70.3416C127.096 70.4065 127.321 70.5108 127.474 70.6544C127.627 70.7934 127.703 70.9834 127.703 71.2244C127.703 71.5348 127.58 71.7804 127.335 71.9611C127.089 72.1372 126.763 72.2252 126.355 72.2252Z" fill="#292929"/>
<path d="M129.883 72.2252C129.484 72.2252 129.185 72.121 128.986 71.9125C128.787 71.6993 128.687 71.3935 128.687 70.995V69.2226H128.027V68.7847H128.687V67.7491H129.25V68.7847H130.32V69.2226H129.25V70.9394C129.25 71.2035 129.306 71.4051 129.417 71.5441C129.528 71.6785 129.709 71.7456 129.959 71.7456C130.033 71.7456 130.107 71.7364 130.181 71.7178C130.256 71.6993 130.323 71.6808 130.383 71.6622L130.48 72.0932C130.42 72.1256 130.332 72.1557 130.216 72.1835C130.1 72.2113 129.989 72.2252 129.883 72.2252Z" fill="#292929"/>
<path d="M131.125 68.7708L130.868 68.5623C130.97 68.4557 131.041 68.3561 131.083 68.2634C131.129 68.1661 131.157 68.0688 131.167 67.9715H130.84V67.2626H131.549V67.763C131.549 67.953 131.519 68.1291 131.458 68.2912C131.398 68.4534 131.287 68.6133 131.125 68.7708ZM132.279 68.7708L132.021 68.5623C132.123 68.4557 132.195 68.3561 132.237 68.2634C132.283 68.1661 132.311 68.0688 132.32 67.9715H131.994V67.2626H132.703V67.763C132.703 67.953 132.673 68.1291 132.612 68.2912C132.552 68.4534 132.441 68.6133 132.279 68.7708Z" fill="#292929"/>
<path fill-rule="evenodd" clip-rule="evenodd" d="M106.734 43.4898C106.734 43.4098 106.799 43.345 106.879 43.345H183.348C183.428 43.345 183.493 43.4098 183.493 43.4898C183.493 43.5697 183.428 43.6346 183.348 43.6346H106.879C106.799 43.6346 106.734 43.5697 106.734 43.4898Z" fill="#E4E4E4"/>
<defs>
<filter id="filter0_i_2_2239" x="0.953125" y="37" width="136" height="136" filterUnits="userSpaceOnUse" color-interpolation-filters="sRGB">
<feFlood flood-opacity="0" result="BackgroundImageFix"/>
<feBlend mode="normal" in="SourceGraphic" in2="BackgroundImageFix" result="shape"/>
<feColorMatrix in="SourceAlpha" type="matrix" values="0 0 0 0 0 0 0 0 0 0 0 0 0 0 0 0 0 0 127 0" result="hardAlpha"/>
<feOffset/>
<feGaussianBlur stdDeviation="2"/>
<feComposite in2="hardAlpha" operator="arithmetic" k2="-1" k3="1"/>
<feColorMatrix type="matrix" values="0 0 0 0 0 0 0 0 0 0 0 0 0 0 0 0 0 0 0.1 0"/>
<feBlend mode="normal" in2="shape" result="effect1_innerShadow_2_2239"/>
</filter>
<filter id="filter1_di_2_2239" x="-38.9652" y="8.70679" width="120.106" height="120.106" filterUnits="userSpaceOnUse" color-interpolation-filters="sRGB">
<feFlood flood-opacity="0" result="BackgroundImageFix"/>
<feColorMatrix in="SourceAlpha" type="matrix" values="0 0 0 0 0 0 0 0 0 0 0 0 0 0 0 0 0 0 127 0" result="hardAlpha"/>
<feOffset dx="1" dy="1"/>
<feGaussianBlur stdDeviation="1"/>
<feComposite in2="hardAlpha" operator="out"/>
<feColorMatrix type="matrix" values="0 0 0 0 0.156863 0 0 0 0 0.215686 0 0 0 0 0.227451 0 0 0 0.5 0"/>
<feBlend mode="normal" in2="BackgroundImageFix" result="effect1_dropShadow_2_2239"/>
<feBlend mode="normal" in="SourceGraphic" in2="effect1_dropShadow_2_2239" result="shape"/>
<feColorMatrix in="SourceAlpha" type="matrix" values="0 0 0 0 0 0 0 0 0 0 0 0 0 0 0 0 0 0 127 0" result="hardAlpha"/>
<feOffset dx="2" dy="2"/>
<feGaussianBlur stdDeviation="4"/>
<feComposite in2="hardAlpha" operator="arithmetic" k2="-1" k3="1"/>
<feColorMatrix type="matrix" values="0 0 0 0 0.4 0 0 0 0 0.4 0 0 0 0 0.4 0 0 0 0.15 0"/>
<feBlend mode="normal" in2="shape" result="effect2_innerShadow_2_2239"/>
</filter>
<filter id="filter2_di_2_2239" x="19.1467" y="85.8909" width="50.7611" height="44.9133" filterUnits="userSpaceOnUse" color-interpolation-filters="sRGB">
<feFlood flood-opacity="0" result="BackgroundImageFix"/>
<feColorMatrix in="SourceAlpha" type="matrix" values="0 0 0 0 0 0 0 0 0 0 0 0 0 0 0 0 0 0 127 0" result="hardAlpha"/>
<feMorphology radius="2" operator="dilate" in="SourceAlpha" result="effect1_dropShadow_2_2239"/>
<feOffset dx="1" dy="1"/>
<feGaussianBlur stdDeviation="1"/>
<feComposite in2="hardAlpha" operator="out"/>
<feColorMatrix type="matrix" values="0 0 0 0 0.7625 0 0 0 0 0.7625 0 0 0 0 0.7625 0 0 0 1 0"/>
<feBlend mode="normal" in2="BackgroundImageFix" result="effect1_dropShadow_2_2239"/>
<feBlend mode="normal" in="SourceGraphic" in2="effect1_dropShadow_2_2239" result="shape"/>
<feColorMatrix in="SourceAlpha" type="matrix" values="0 0 0 0 0 0 0 0 0 0 0 0 0 0 0 0 0 0 127 0" result="hardAlpha"/>
<feOffset dx="2" dy="2"/>
<feGaussianBlur stdDeviation="4"/>
<feComposite in2="hardAlpha" operator="arithmetic" k2="-1" k3="1"/>
<feColorMatrix type="matrix" values="0 0 0 0 0.4 0 0 0 0 0.4 0 0 0 0 0.4 0 0 0 0.15 0"/>
<feBlend mode="normal" in2="shape" result="effect2_innerShadow_2_2239"/>
</filter>
<filter id="filter3_di_2_2239" x="-41.0419" y="12.2178" width="71.634" height="118.689" filterUnits="userSpaceOnUse" color-interpolation-filters="sRGB">
<feFlood flood-opacity="0" result="BackgroundImageFix"/>
<feColorMatrix in="SourceAlpha" type="matrix" values="0 0 0 0 0 0 0 0 0 0 0 0 0 0 0 0 0 0 127 0" result="hardAlpha"/>
<feMorphology radius="2" operator="dilate" in="SourceAlpha" result="effect1_dropShadow_2_2239"/>
<feOffset dx="1" dy="1"/>
<feGaussianBlur stdDeviation="1"/>
<feComposite in2="hardAlpha" operator="out"/>
<feColorMatrix type="matrix" values="0 0 0 0 0.7625 0 0 0 0 0.7625 0 0 0 0 0.7625 0 0 0 1 0"/>
<feBlend mode="normal" in2="BackgroundImageFix" result="effect1_dropShadow_2_2239"/>
<feBlend mode="normal" in="SourceGraphic" in2="effect1_dropShadow_2_2239" result="shape"/>
<feColorMatrix in="SourceAlpha" type="matrix" values="0 0 0 0 0 0 0 0 0 0 0 0 0 0 0 0 0 0 127 0" result="hardAlpha"/>
<feOffset dx="2" dy="2"/>
<feGaussianBlur stdDeviation="4"/>
<feComposite in2="hardAlpha" operator="arithmetic" k2="-1" k3="1"/>
<feColorMatrix type="matrix" values="0 0 0 0 0.4 0 0 0 0 0.4 0 0 0 0 0.4 0 0 0 0.15 0"/>
<feBlend mode="normal" in2="shape" result="effect2_innerShadow_2_2239"/>
</filter>
<filter id="filter4_d_2_2239" x="87.4805" y="10" width="124.989" height="93.7078" filterUnits="userSpaceOnUse" color-interpolation-filters="sRGB">
<feFlood flood-opacity="0" result="BackgroundImageFix"/>
<feColorMatrix in="SourceAlpha" type="matrix" values="0 0 0 0 0 0 0 0 0 0 0 0 0 0 0 0 0 0 127 0" result="hardAlpha"/>
<feOffset/>
<feGaussianBlur stdDeviation="5"/>
<feColorMatrix type="matrix" values="0 0 0 0 0 0 0 0 0 0 0 0 0 0 0 0 0 0 0.15 0"/>
<feBlend mode="normal" in2="BackgroundImageFix" result="effect1_dropShadow_2_2239"/>
<feBlend mode="normal" in="SourceGraphic" in2="effect1_dropShadow_2_2239" result="shape"/>
</filter>
<filter id="filter5_d_2_2239" x="77.4805" y="0" width="144.989" height="113.708" filterUnits="userSpaceOnUse" color-interpolation-filters="sRGB">
<feFlood flood-opacity="0" result="BackgroundImageFix"/>
<feColorMatrix in="SourceAlpha" type="matrix" values="0 0 0 0 0 0 0 0 0 0 0 0 0 0 0 0 0 0 127 0" result="hardAlpha"/>
<feOffset/>
<feGaussianBlur stdDeviation="10"/>
<feColorMatrix type="matrix" values="0 0 0 0 0 0 0 0 0 0 0 0 0 0 0 0 0 0 0.15 0"/>
<feBlend mode="normal" in2="BackgroundImageFix" result="effect1_dropShadow_2_2239"/>
<feBlend mode="normal" in="SourceGraphic" in2="effect1_dropShadow_2_2239" result="shape"/>
</filter>
<linearGradient id="paint0_linear_2_2239" x1="132.252" y1="111.615" x2="84.7307" y2="152.996" gradientUnits="userSpaceOnUse">
<stop offset="0.161458" stop-color="#73314F"/>
<stop offset="1" stop-color="#275C61"/>
</linearGradient>
<linearGradient id="paint1_linear_2_2239" x1="59.3458" y1="154.231" x2="35.1746" y2="192.117" gradientUnits="userSpaceOnUse">
<stop offset="0.161458" stop-color="#73314F"/>
<stop offset="1" stop-color="#275C61"/>
</linearGradient>
<clipPath id="clip0_2_2239">
<rect x="0.953125" y="37" width="136" height="136" rx="68" fill="white"/>
</clipPath>
</defs>
</svg>
